<svg width="110" height="110" viewBox="0 0 110 110" fill="none" xmlns="http://www.w3.org/2000/svg">
<circle cx="55" cy="55" r="55" fill="white"/>
<path d="M61.848 87.304C61.9333 87.2613 61.9973 87.1973 62.04 87.112C62.1253 87.0693 62.2107 87.0267 62.296 86.984C62.0827 86.6427 61.8267 86.4933 61.528 86.536H60.12C59.9493 86.4933 59.7573 86.4933 59.544 86.536C59.3733 86.5787 59.2027 86.5573 59.032 86.472C58.9893 86.4293 58.9253 86.3867 58.84 86.344C58.7547 86.344 58.6693 86.3227 58.584 86.28L58.264 86.216C57.8373 86.3013 57.4533 86.2373 57.112 86.024C57.368 85.9813 57.624 85.96 57.88 85.96C58.1787 85.96 58.4773 85.96 58.776 85.96C58.9467 85.9173 59.096 85.8747 59.224 85.832C59.352 85.7893 59.416 85.64 59.416 85.384H60.376C60.504 85.3413 60.632 85.2987 60.76 85.256C60.888 85.2133 61.0373 85.1707 61.208 85.128C61.4213 85.128 61.5067 84.9787 61.464 84.68C61.2933 84.68 61.1227 84.68 60.952 84.68C60.7813 84.6373 60.632 84.5307 60.504 84.36C60.504 84.36 60.44 84.36 60.312 84.36C60.2267 84.36 60.1627 84.4027 60.12 84.488C59.9493 84.6587 59.736 84.744 59.48 84.744C59.2667 84.7013 59.0533 84.68 58.84 84.68C58.712 84.6373 58.584 84.6373 58.456 84.68C58.328 84.68 58.2 84.68 58.072 84.68C57.9013 84.7653 57.688 84.8507 57.432 84.936C57.2187 84.936 57.0693 84.9147 56.984 84.872C56.856 84.7013 56.6427 84.68 56.344 84.808C56.1733 84.552 56.0453 84.4027 55.96 84.36C55.9173 84.3173 55.768 84.3173 55.512 84.36C55.128 84.488 54.7653 84.5307 54.424 84.488C54.3387 84.4027 54.2107 84.3813 54.04 84.424C53.912 84.4667 53.784 84.5093 53.656 84.552C53.7413 84.7227 53.8907 84.7867 54.104 84.744C54.36 84.7013 54.488 84.8293 54.488 85.128C54.488 85.128 54.4667 85.128 54.424 85.128C54.424 85.1707 54.4027 85.192 54.36 85.192C53.9333 85.1493 53.4853 85.128 53.016 85.128C52.5893 85.128 52.1413 85.128 51.672 85.128C51.416 85.0853 51.16 85.0427 50.904 85C50.6907 84.9147 50.456 84.8507 50.2 84.808C50.1573 84.808 50.1147 84.7867 50.072 84.744C50.072 84.7013 50.0507 84.68 50.008 84.68C49.7093 84.4667 49.4747 84.36 49.304 84.36C49.176 84.36 48.984 84.4453 48.728 84.616C48.216 84.36 47.7467 84.0613 47.32 83.72C46.8933 83.336 46.4667 82.9733 46.04 82.632C45.9547 82.5467 45.8693 82.44 45.784 82.312C45.6987 82.184 45.592 82.0987 45.464 82.056C45.2933 81.928 45.208 81.7787 45.208 81.608C45.1653 81.4373 45.1653 81.2667 45.208 81.096C45.2933 80.9253 45.2293 80.7973 45.016 80.712C44.76 80.4987 44.5893 80.264 44.504 80.008C44.376 79.7093 44.2693 79.4107 44.184 79.112C44.1413 78.984 44.0987 78.8773 44.056 78.792C43.9707 78.664 43.9067 78.536 43.864 78.408V77.832C43.864 77.576 44.0133 77.5333 44.312 77.704C44.6533 77.7467 44.9733 77.896 45.272 78.152C45.528 78.3653 45.8053 78.6 46.104 78.856C46.232 78.8987 46.296 79.0907 46.296 79.432C46.3387 79.7307 46.5307 79.944 46.872 80.072C46.9573 80.072 47.064 80.136 47.192 80.264C47.704 80.6053 48.2373 80.7973 48.792 80.84C49.176 80.9253 49.56 81.032 49.944 81.16C50.328 81.2453 50.712 81.3093 51.096 81.352C51.3093 81.3947 51.5013 81.48 51.672 81.608C51.8427 81.6933 52.0347 81.7147 52.248 81.672L51.672 82.184C51.8 82.44 51.9707 82.568 52.184 82.568C52.3973 82.5253 52.6107 82.504 52.824 82.504C52.7813 82.6747 52.76 82.8453 52.76 83.016C52.76 83.1867 52.7173 83.3573 52.632 83.528C52.5893 83.784 52.3973 83.8693 52.056 83.784C51.928 83.6987 51.8213 83.6773 51.736 83.72C51.6507 83.72 51.544 83.72 51.416 83.72C51.1173 83.72 50.9253 83.6773 50.84 83.592C50.3707 83.464 49.944 83.5067 49.56 83.72L49.624 83.784C49.8373 83.8267 50.0507 83.8907 50.264 83.976C50.4773 84.0187 50.6907 84.04 50.904 84.04H51.48C52.0347 84.296 52.632 84.36 53.272 84.232C53.6133 84.1467 53.976 84.104 54.36 84.104C54.744 84.0613 55.1493 84.0187 55.576 83.976C55.704 83.976 55.832 83.9973 55.96 84.04C56.088 84.04 56.216 84.104 56.344 84.232C56.344 84.3173 56.4507 84.36 56.664 84.36C56.664 84.36 56.6853 84.3387 56.728 84.296C56.7707 84.2107 56.792 84.1253 56.792 84.04V83.848C57.688 83.848 58.6053 83.72 59.544 83.464C59.7573 83.3787 59.9493 83.272 60.12 83.144C60.3333 82.9733 60.5253 82.824 60.696 82.696C60.6107 82.2693 60.5253 82.056 60.44 82.056C60.3547 82.056 60.1627 82.1627 59.864 82.376C59.5653 81.9493 59.1387 81.864 58.584 82.12C58.2 82.2907 57.8373 82.3973 57.496 82.44C57.368 82.44 57.2187 82.44 57.048 82.44C56.92 82.3973 56.792 82.376 56.664 82.376C56.6213 82.1627 56.7067 82.0133 56.92 81.928C57.1333 81.8 57.1333 81.6293 56.92 81.416C57.048 81.3307 57.1547 81.2667 57.24 81.224C57.368 81.1813 57.5173 81.1387 57.688 81.096C57.8587 81.096 58.0293 81.096 58.2 81.096C58.4133 81.096 58.6053 81.0107 58.776 80.84C58.52 80.6267 58.264 80.584 58.008 80.712C57.7947 80.84 57.5813 80.8827 57.368 80.84C57.368 80.584 57.2827 80.3707 57.112 80.2C57.368 80.1147 57.6027 80.072 57.816 80.072C58.0293 80.0293 58.2427 79.9867 58.456 79.944C58.9253 79.816 59.416 79.688 59.928 79.56C60.4827 79.3893 61.0373 79.1973 61.592 78.984C62.232 78.856 62.7227 78.5573 63.064 78.088L63.448 77.832C63.96 77.7893 64.152 77.5333 64.024 77.064C64.024 76.7653 64.152 76.552 64.408 76.424C64.7493 76.2107 65.0693 75.976 65.368 75.72C65.6667 75.464 65.9867 75.2507 66.328 75.08C66.5413 74.952 66.6907 74.7813 66.776 74.568C66.8613 74.312 66.9253 74.0987 66.968 73.928C67.0533 73.7573 67.096 73.5227 67.096 73.224C66.968 73.1813 66.8187 73.1173 66.648 73.032C66.52 72.904 66.3493 72.8827 66.136 72.968C65.9227 72.968 65.6667 72.8613 65.368 72.648C64.9413 72.392 64.536 72.136 64.152 71.88C63.768 71.624 63.3627 71.3467 62.936 71.048C62.7653 70.9627 62.5947 70.8773 62.424 70.792C62.2533 70.7067 62.0613 70.6213 61.848 70.536C61.1227 70.152 60.4613 69.6187 59.864 68.936C59.224 68.5093 58.6267 67.9973 58.072 67.4C57.9013 67.144 57.688 66.9093 57.432 66.696C57.2187 66.44 57.0053 66.2267 56.792 66.056C56.7067 65.9707 56.6213 65.8853 56.536 65.8C56.4507 65.672 56.3653 65.544 56.28 65.416C56.0667 65.0747 55.8533 64.7333 55.64 64.392C55.4267 64.008 55.1493 63.6667 54.808 63.368C54.7227 63.24 54.6587 63.112 54.616 62.984C54.5733 62.856 54.5947 62.7067 54.68 62.536C54.3813 62.4507 54.168 62.3013 54.04 62.088C53.912 61.832 53.784 61.6187 53.656 61.448C53.6133 61.32 53.5493 61.192 53.464 61.064C53.4213 60.936 53.3573 60.808 53.272 60.68C53.016 60.424 52.952 60.168 53.08 59.912C53.1227 59.9973 53.1653 60.104 53.208 60.232C53.2933 60.3173 53.3573 60.4027 53.4 60.488C53.6133 60.488 53.8053 60.5307 53.976 60.616C53.976 60.488 53.9547 60.36 53.912 60.232C53.912 60.104 53.912 59.976 53.912 59.848C53.8693 59.72 53.848 59.4853 53.848 59.144V58.312C53.8907 57.8853 53.9333 57.4587 53.976 57.032C54.0187 56.5627 54.0613 56.0933 54.104 55.624C54.1467 55.368 54.2107 55.1333 54.296 54.92C54.3813 54.7067 54.4453 54.472 54.488 54.216C54.6587 53.7893 54.8293 53.384 55 53C55.1707 52.616 55.3413 52.2107 55.512 51.784L56.088 50.888C56.1733 50.76 56.2587 50.6533 56.344 50.568C56.472 50.44 56.5573 50.2907 56.6 50.12C56.6427 49.992 56.7067 49.864 56.792 49.736C56.92 49.608 57.0267 49.5013 57.112 49.416C57.368 49.2027 57.6027 49.0107 57.816 48.84C58.072 48.6693 58.328 48.4773 58.584 48.264C58.712 48.1787 58.84 48.136 58.968 48.136C59.1387 48.0933 59.288 48.136 59.416 48.264C58.904 48.648 58.584 49.1173 58.456 49.672L58.52 49.8C58.6053 49.7147 58.6907 49.672 58.776 49.672C58.8613 49.672 58.9253 49.6507 58.968 49.608C59.0533 49.5227 59.1387 49.4373 59.224 49.352C59.3093 49.224 59.3733 49.096 59.416 48.968C59.5013 48.968 59.544 48.9467 59.544 48.904C59.5867 48.8613 59.608 48.84 59.608 48.84C59.7787 48.84 59.8853 48.8187 59.928 48.776C60.184 48.648 60.4187 48.52 60.632 48.392C60.888 48.2213 61.144 48.0507 61.4 47.88L61.272 47.752C61.016 47.752 60.8667 47.7307 60.824 47.688C60.7813 47.6453 60.7387 47.496 60.696 47.24C60.6533 47.1547 60.5893 47.0693 60.504 46.984C60.4613 46.856 60.3973 46.728 60.312 46.6L60.632 46.28C60.12 45.896 60.1413 45.5547 60.696 45.256C60.568 45.0853 60.3973 45.0213 60.184 45.064C60.056 45.1493 59.9493 45.2347 59.864 45.32C59.7787 45.4053 59.672 45.4693 59.544 45.512C59.5013 45.5547 59.4373 45.576 59.352 45.576C59.2667 45.576 59.1813 45.6187 59.096 45.704C59.1813 45.448 59.288 45.2773 59.416 45.192C59.672 44.8933 59.9493 44.5947 60.248 44.296C60.5467 43.9973 60.8453 43.7627 61.144 43.592C61.4853 43.2933 61.8267 43.0373 62.168 42.824C62.552 42.568 62.936 42.312 63.32 42.056C63.5333 41.8853 63.7467 41.736 63.96 41.608C64.1733 41.4373 64.3653 41.2667 64.536 41.096C64.7067 40.968 64.8773 40.8187 65.048 40.648C65.2613 40.4347 65.4533 40.2427 65.624 40.072C65.624 40.0293 65.6453 40.008 65.688 40.008C65.7307 39.9653 65.7733 39.9013 65.816 39.816C65.4747 39.9013 65.1547 40.008 64.856 40.136C64.5573 40.264 64.2373 40.328 63.896 40.328C63.9813 40.1147 64.088 39.9653 64.216 39.88L65.304 39.496C65.4747 39.4107 65.624 39.3467 65.752 39.304C65.88 39.2613 66.0293 39.2187 66.2 39.176C66.5413 39.0907 66.904 39.0053 67.288 38.92C67.672 38.792 68.0133 38.7067 68.312 38.664C68.44 38.5787 68.568 38.5147 68.696 38.472C68.824 38.3867 68.952 38.3013 69.08 38.216C69.3787 38.0453 69.656 38.0453 69.912 38.216C70.1253 38.344 70.3173 38.472 70.488 38.6C70.7013 38.6853 70.8507 38.8347 70.936 39.048C71.7467 39.176 72.408 39.624 72.92 40.392C72.92 40.392 72.92 40.4133 72.92 40.456C72.92 40.456 72.9413 40.456 72.984 40.456L74.008 41.48C74.3067 41.9493 74.648 42.4187 75.032 42.888C75.288 43.2293 75.4587 43.592 75.544 43.976C75.672 44.36 75.8 44.7227 75.928 45.064C76.2267 45.7467 76.2267 46.4507 75.928 47.176C75.928 47.2613 75.9067 47.3467 75.864 47.432C75.864 47.5173 75.8853 47.6027 75.928 47.688C75.928 47.9013 75.9493 48.072 75.992 48.2C76.0347 48.328 75.9707 48.4987 75.8 48.712C75.7573 48.7547 75.736 48.84 75.736 48.968C75.7787 49.096 75.8 49.2027 75.8 49.288H75.16C74.776 49.3307 74.712 49.5227 74.968 49.864C75.1387 50.1627 75.0747 50.3547 74.776 50.44C74.6053 50.4827 74.52 50.632 74.52 50.888C74.52 51.016 74.4773 51.1653 74.392 51.336C74.3493 51.464 74.3067 51.6133 74.264 51.784C74.2213 51.528 74.1573 51.3147 74.072 51.144C74.0293 50.9733 73.9867 50.8027 73.944 50.632C73.944 50.5467 73.9013 50.504 73.816 50.504C73.7733 50.4613 73.7307 50.4187 73.688 50.376L73.432 50.76C73.3893 51.0587 73.3467 51.3573 73.304 51.656C73.2613 51.9547 73.2187 52.2533 73.176 52.552C73.1333 52.9787 73.0907 53.4053 73.048 53.832C73.048 54.2587 72.8987 54.664 72.6 55.048C72.4293 54.8773 72.344 54.664 72.344 54.408C72.3867 54.152 72.3653 53.896 72.28 53.64C72.152 53.8107 72.0453 54.0027 71.96 54.216C71.8747 54.3867 71.768 54.536 71.64 54.664C71.5547 54.792 71.448 54.9413 71.32 55.112C71.192 55.2827 71 55.4107 70.744 55.496C70.7013 55.24 70.68 55.0053 70.68 54.792C70.68 54.536 70.6373 54.3227 70.552 54.152C70.552 53.8107 70.488 53.576 70.36 53.448C70.3173 53.4053 70.2747 53.3413 70.232 53.256C70.232 53.1707 70.2107 53.1067 70.168 53.064C70.168 52.8507 70.1467 52.6587 70.104 52.488C69.976 52.5307 69.8267 52.6373 69.656 52.808C69.656 52.7653 69.6347 52.7227 69.592 52.68C69.592 52.6373 69.592 52.616 69.592 52.616C69.592 52.5307 69.592 52.4667 69.592 52.424C69.6347 52.3387 69.656 52.232 69.656 52.104C69.528 52.1893 69.3573 52.232 69.144 52.232C69.3147 51.976 69.4213 51.72 69.464 51.464C69.5493 51.208 69.5067 50.9307 69.336 50.632C69.2933 50.6747 69.2507 50.7387 69.208 50.824C69.1653 50.9093 69.144 50.9733 69.144 51.016H69.08C69.0373 50.8453 69.016 50.6747 69.016 50.504C69.016 50.3333 68.9733 50.1413 68.888 49.928C68.7173 49.928 68.568 49.928 68.44 49.928C68.312 49.928 68.1627 49.9707 67.992 50.056C67.1387 50.184 66.4133 50.376 65.816 50.632C65.0053 50.888 64.28 51.272 63.64 51.784C63.512 51.912 63.3627 52.0613 63.192 52.232C63.064 52.36 62.8933 52.488 62.68 52.616C62.4667 52.7867 62.2747 53.0213 62.104 53.32C61.976 53.576 61.8053 53.8107 61.592 54.024C61.4213 54.3653 61.208 54.7067 60.952 55.048C60.7387 55.3893 60.5253 55.7307 60.312 56.072C60.056 56.3707 59.8853 56.4987 59.8 56.456C59.7573 56.4133 59.6933 56.584 59.608 56.968C59.5653 57.1387 59.5867 57.352 59.672 57.608C59.7573 57.864 59.8213 58.12 59.864 58.376C60.0773 58.8027 60.2693 59.2507 60.44 59.72C60.6533 60.1467 60.9093 60.5733 61.208 61C61.72 61.5973 62.232 62.1947 62.744 62.792C63.2987 63.3467 63.8747 63.8587 64.472 64.328C64.8987 64.6693 65.3253 65.0107 65.752 65.352C66.2213 65.6507 66.6693 65.9707 67.096 66.312C67.5227 66.568 67.928 66.824 68.312 67.08C68.7387 67.336 69.1653 67.592 69.592 67.848L72.088 69.512C72.1733 69.5547 72.3013 69.704 72.472 69.96C72.5573 70.1307 72.664 70.28 72.792 70.408C72.9627 70.536 73.1333 70.664 73.304 70.792C73.816 71.048 74.2427 71.368 74.584 71.752C74.968 72.136 75.3093 72.5627 75.608 73.032C75.864 73.416 76.056 73.8213 76.184 74.248C76.3547 74.6747 76.5893 75.0587 76.888 75.4C76.9307 75.4427 76.9307 75.528 76.888 75.656C76.888 75.784 76.9093 75.912 76.952 76.04C77.0373 76.04 77.1013 76.0613 77.144 76.104C77.2293 76.1467 77.336 76.168 77.464 76.168C77.464 76.3387 77.4427 76.5947 77.4 76.936C77.4 77.2773 77.3147 77.896 77.144 78.792C77.0587 78.8347 76.9733 78.8987 76.888 78.984C76.8027 79.0267 76.7173 79.0907 76.632 79.176C76.632 79.4747 76.6533 79.7093 76.696 79.88C76.5253 79.9227 76.4187 79.9013 76.376 79.816C76.376 79.7307 76.3333 79.6667 76.248 79.624C76.1627 79.4533 76.056 79.368 75.928 79.368C75.5867 79.4533 75.4587 79.5813 75.544 79.752C75.5867 79.88 75.5653 79.9653 75.48 80.008C75.4373 80.0507 75.3733 80.1147 75.288 80.2C74.8187 80.4987 74.3707 80.968 73.944 81.608C73.816 81.9067 73.624 82.1627 73.368 82.376C73.1547 82.5467 72.92 82.7387 72.664 82.952C72.6213 82.9947 72.536 83.0373 72.408 83.08C72.3227 83.1227 72.216 83.144 72.088 83.144C71.576 83.016 71.2347 83.1653 71.064 83.592C71.064 83.848 70.936 84.0187 70.68 84.104C70.552 84.104 70.488 84.1893 70.488 84.36C70.4453 84.5307 70.36 84.68 70.232 84.808C70.1893 84.8507 70.1253 84.8933 70.04 84.936C69.9973 84.936 69.9333 84.9787 69.848 85.064H69.72C69.4213 85.32 69.1013 85.2773 68.76 84.936C68.5893 84.9787 68.44 85 68.312 85C68.184 85.0427 68.0773 85.0853 67.992 85.128C67.7787 85.2133 67.5867 85.2987 67.416 85.384C67.2453 85.512 67.0747 85.6187 66.904 85.704C66.8613 85.7467 66.8187 85.7893 66.776 85.832C66.7333 85.9173 66.6907 85.96 66.648 85.96C66.4347 85.9173 66.264 85.9387 66.136 86.024C66.0507 86.152 65.944 86.2373 65.816 86.28C65.688 86.3653 65.56 86.408 65.432 86.408C65.304 86.408 65.176 86.408 65.048 86.408C64.8773 86.5787 64.6853 86.664 64.472 86.664C64.3013 86.7067 64.1093 86.7493 63.896 86.792C63.768 86.8347 63.64 86.8773 63.512 86.92C63.384 86.9627 63.256 87.0053 63.128 87.048C62.9147 87.0907 62.7013 87.1333 62.488 87.176C62.2747 87.2613 62.0613 87.304 61.848 87.304ZM48.664 82.12C48.8347 82.2053 48.9413 82.184 48.984 82.056C48.7707 81.7147 48.4293 81.5653 47.96 81.608C47.96 81.8213 48.0453 81.9493 48.216 81.992C48.3867 82.0347 48.536 82.0773 48.664 82.12ZM52.824 81.672C52.9947 81.5867 53.208 81.5653 53.464 81.608C53.208 81.608 52.9947 81.6293 52.824 81.672ZM56.344 80.328V80.2C56.4293 80.2 56.4933 80.2 56.536 80.2C56.6213 80.2 56.7067 80.2 56.792 80.2V80.264C56.7067 80.264 56.6213 80.2853 56.536 80.328C56.4933 80.328 56.4293 80.328 56.344 80.328ZM65.048 86.408C65.1333 86.3227 65.2187 86.2587 65.304 86.216C65.432 86.216 65.496 86.1307 65.496 85.96C65.2827 85.8747 65.1333 85.832 65.048 85.832C65.0053 85.8747 64.8987 86.024 64.728 86.28C64.8987 86.28 65.0053 86.3227 65.048 86.408ZM61.272 82.696C61.528 82.6533 61.784 82.6107 62.04 82.568C62.3387 82.5253 62.616 82.4187 62.872 82.248C63 82.248 63.064 82.184 63.064 82.056C63.064 81.9707 63.0213 81.9067 62.936 81.864C62.8933 81.7787 62.8507 81.7147 62.808 81.672C62.7227 81.672 62.6373 81.6933 62.552 81.736C62.4667 81.7787 62.3813 81.8 62.296 81.8C62.2107 81.8 62.1253 81.8213 62.04 81.864C61.9973 81.864 61.9333 81.864 61.848 81.864C61.5493 81.8213 61.3573 81.864 61.272 81.992C61.2293 82.0773 61.2293 82.312 61.272 82.696ZM70.552 84.872C70.5093 84.744 70.488 84.5733 70.488 84.36C70.488 84.4453 70.5307 84.5093 70.616 84.552C70.7013 84.5947 70.68 84.7013 70.552 84.872ZM71.256 84.872C71.256 84.4453 71.448 84.232 71.832 84.232C71.8747 84.232 71.896 84.2533 71.896 84.296C71.8533 84.3813 71.768 84.4667 71.64 84.552C71.512 84.6373 71.384 84.744 71.256 84.872ZM52.568 57.544C52.44 57.3307 52.3973 57.1173 52.44 56.904C52.5253 56.6907 52.568 56.456 52.568 56.2C52.696 56.4133 52.76 56.6053 52.76 56.776C52.8027 56.9467 52.824 57.1173 52.824 57.288C52.824 57.3307 52.7813 57.3733 52.696 57.416C52.6533 57.4587 52.6107 57.5013 52.568 57.544ZM54.168 52.488C54.1253 52.4027 54.0827 52.3387 54.04 52.296C53.9973 52.2107 53.9547 52.1253 53.912 52.04C54.04 51.9547 54.168 51.8693 54.296 51.784C54.424 51.6987 54.5733 51.6133 54.744 51.528C54.6587 51.8693 54.5733 52.1467 54.488 52.36C54.488 52.4027 54.4453 52.4453 54.36 52.488C54.2747 52.488 54.2107 52.488 54.168 52.488ZM55.512 50.632C55.3413 50.12 55.5333 49.8427 56.088 49.8C56.0453 50.0987 55.8533 50.376 55.512 50.632ZM60.184 48.136C60.1413 48.008 60.12 47.944 60.12 47.944C60.12 47.9013 60.184 47.88 60.312 47.88C60.312 47.88 60.312 47.9013 60.312 47.944C60.3547 47.944 60.376 47.944 60.376 47.944L60.184 48.136ZM62.68 46.856C62.8933 46.7707 63.0853 46.7067 63.256 46.664C63.4267 46.5787 63.5547 46.408 63.64 46.152C63.3413 46.0667 63.1493 46.088 63.064 46.216C63.0213 46.3013 62.8933 46.5147 62.68 46.856ZM62.104 46.344C62.4027 46.3013 62.6587 46.1307 62.872 45.832C63.0427 45.576 63.2773 45.5547 63.576 45.768C63.6613 45.8533 63.768 45.9173 63.896 45.96C64.024 46.0027 64.152 46.0667 64.28 46.152C64.4933 45.9813 64.6853 45.8107 64.856 45.64C65.0693 45.4267 65.304 45.2987 65.56 45.256C65.816 45.1707 65.944 45 65.944 44.744C66.072 44.616 66.136 44.424 66.136 44.168C66.0933 44.0827 66.0293 44.0187 65.944 43.976C65.9013 43.8907 65.8587 43.8053 65.816 43.72C66.0293 43.3787 66.2427 43.2933 66.456 43.464C66.712 43.592 66.9467 43.656 67.16 43.656C67.2027 43.528 67.2453 43.4 67.288 43.272C67.3307 43.144 67.3947 42.9947 67.48 42.824C67.352 42.824 67.2453 42.824 67.16 42.824C67.0747 42.7813 66.9893 42.7813 66.904 42.824C66.6907 42.8667 66.4773 42.9307 66.264 43.016C66.0507 43.0587 65.8373 43.1013 65.624 43.144C65.4533 43.1867 65.3253 43.2507 65.24 43.336C65.1547 43.4213 65.112 43.592 65.112 43.848C65.368 44.0187 65.496 44.168 65.496 44.296C65.5387 44.3813 65.4533 44.5307 65.24 44.744C65.1547 44.6587 65.0693 44.5307 64.984 44.36L64.28 45.064C64.152 44.936 63.96 44.8933 63.704 44.936C63.4907 44.9787 63.3627 44.8293 63.32 44.488C62.936 44.5733 62.5947 44.7013 62.296 44.872C61.9973 45 61.7413 45.2133 61.528 45.512C61.4853 45.5973 61.4213 45.6827 61.336 45.768C61.2933 45.8107 61.2293 45.8747 61.144 45.96C61.4427 46.1307 61.6773 46.088 61.848 45.832C61.9333 45.7893 62.0187 45.7253 62.104 45.64C62.232 45.5547 62.36 45.4907 62.488 45.448C62.616 45.6613 62.5733 45.768 62.36 45.768C62.104 45.8107 62.0187 46.0027 62.104 46.344ZM66.2 45.064H66.584C66.4987 45.0213 66.456 44.9787 66.456 44.936C66.4133 44.9787 66.328 45 66.2 45C66.2 45 66.2 45.0213 66.2 45.064ZM62.488 40.904C62.7013 40.6053 62.8293 40.456 62.872 40.456C62.9573 40.4133 63.1067 40.456 63.32 40.584C63.192 40.6267 63.064 40.6907 62.936 40.776C62.808 40.8187 62.6587 40.8613 62.488 40.904Z" fill="#FF5D8F"/>
<path d="M61.648 70.568C61.4773 70.2693 61.328 69.9707 61.2 69.672C61.072 69.3733 60.9867 69.0747 60.944 68.776C60.9013 68.4347 60.7947 68.1787 60.624 68.008C60.496 67.88 60.3467 67.752 60.176 67.624C59.8773 67.5387 59.792 67.4107 59.92 67.24C59.5787 67.1547 59.28 67.048 59.024 66.92C58.768 66.792 58.5333 66.5147 58.32 66.088C58.192 65.704 58.0427 65.3627 57.872 65.064C57.744 64.7653 57.6373 64.4453 57.552 64.104L57.296 63.72C57.2533 63.7627 57.1893 63.8053 57.104 63.848C57.0613 63.8907 57.0187 63.9333 56.976 63.976C56.7627 64.1893 56.6133 64.36 56.528 64.488C56.4853 64.5307 56.4427 64.5947 56.4 64.68C56.4 64.7653 56.3787 64.8507 56.336 64.936C56.2933 64.936 56.2507 64.936 56.208 64.936C56.1653 64.8933 56.1013 64.872 56.016 64.872C55.9307 65.0427 55.8453 65.2133 55.76 65.384C55.6747 65.5547 55.5467 65.768 55.376 66.024C55.3333 66.0667 55.312 66.1307 55.312 66.216C55.0133 66.3013 54.8213 66.6 54.736 67.112C54.7787 67.1973 54.7787 67.3253 54.736 67.496C54.6933 67.6667 54.672 67.816 54.672 67.944C54.544 68.328 54.4373 68.5413 54.352 68.584C54.3093 68.6267 54.2027 68.4987 54.032 68.2C53.9893 68.1147 53.968 68.0293 53.968 67.944C53.968 67.8587 53.9253 67.752 53.84 67.624C53.9253 67.624 54.0107 67.6027 54.096 67.56C54.224 67.56 54.352 67.624 54.48 67.752C54.5227 67.7947 54.544 67.816 54.544 67.816L54.48 67.752C54.48 67.7093 54.4587 67.6667 54.416 67.624C54.416 67.624 54.416 67.6027 54.416 67.56V66.856C54.5867 66.856 54.672 66.664 54.672 66.28C54.7147 66.0667 54.736 65.832 54.736 65.576C54.7787 65.32 54.8853 65.1067 55.056 64.936C55.0987 64.9787 55.1413 65 55.184 65C55.2267 65.0427 55.2693 65.1067 55.312 65.192C55.6533 64.8933 55.6747 64.488 55.376 63.976L55.184 63.336C55.2693 63.4213 55.3547 63.464 55.44 63.464C55.3973 63.3787 55.376 63.2933 55.376 63.208C55.376 63.1227 55.3333 63.016 55.248 62.888C55.2053 62.7173 55.1627 62.5467 55.12 62.376C55.0773 62.1627 55.0773 61.9707 55.12 61.8V61.544C55.0347 61.3307 54.928 61.16 54.8 61.032C54.7147 60.904 54.672 60.7547 54.672 60.584C54.6293 60.584 54.5867 60.584 54.544 60.584C54.5013 60.584 54.4587 60.584 54.416 60.584V60.648C54.3733 60.4773 54.3307 60.328 54.288 60.2C54.288 60.0293 54.2453 59.8587 54.16 59.688L54.096 59.368C54.0533 59.1973 54.0107 59.048 53.968 58.92C53.968 58.792 53.9467 58.664 53.904 58.536C53.8187 58.3227 53.7547 58.1307 53.712 57.96C53.6693 57.7467 53.6053 57.4907 53.52 57.192C53.4773 56.8507 53.4133 56.552 53.328 56.296C53.2427 55.9973 53.1573 55.6773 53.072 55.336C53.0293 55.464 52.944 55.6347 52.816 55.848C52.7733 55.72 52.7093 55.592 52.624 55.464C52.5813 55.336 52.5173 55.1867 52.432 55.016C52.3893 55.1867 52.3467 55.3787 52.304 55.592C52.2613 55.7627 52.1333 55.848 51.92 55.848C51.9627 55.976 51.984 56.104 51.984 56.232C51.984 56.36 51.984 56.4667 51.984 56.552C51.728 56.296 51.6 56.1253 51.6 56.04C51.6 56.0827 51.5573 56.104 51.472 56.104C51.5573 56.232 51.6 56.3813 51.6 56.552C51.6 56.68 51.6213 56.808 51.664 56.936C51.7067 56.808 51.8133 56.68 51.984 56.552V57C51.8133 57.2987 51.6853 57.2987 51.6 57H51.408C51.3227 56.5733 51.2373 56.1253 51.152 55.656C51.1093 55.1867 51.0453 54.7173 50.96 54.248C50.9173 54.248 50.896 54.248 50.896 54.248L50.704 55.272C50.576 55.1867 50.4907 55.0373 50.448 54.824C50.448 54.6107 50.448 54.4187 50.448 54.248C50.3627 53.5653 50.192 52.8827 49.936 52.2L49.68 51.688C49.6373 51.56 49.616 51.432 49.616 51.304C49.616 51.1333 49.5947 50.984 49.552 50.856L49.872 51.048C49.8293 50.5787 49.744 50.28 49.616 50.152C49.5307 49.9813 49.296 49.9173 48.912 49.96C49.04 49.832 49.104 49.6827 49.104 49.512C49.1467 49.2987 49.2747 49.1067 49.488 48.936C49.488 48.936 49.488 48.8933 49.488 48.808C49.488 48.68 49.4667 48.616 49.424 48.616C49.2533 48.488 49.104 48.36 48.976 48.232C48.848 48.104 48.6773 48.0827 48.464 48.168C48.208 48.2107 47.8667 48.232 47.44 48.232C47.056 48.1893 46.352 48.2533 45.328 48.424C45.2853 48.4667 45.2 48.488 45.072 48.488C44.9867 48.4453 44.9013 48.424 44.816 48.424C43.4933 48.4667 42.4053 48.552 41.552 48.68C40.7413 48.7653 39.9947 48.8507 39.312 48.936C39.312 49.064 39.312 49.192 39.312 49.32C39.312 49.448 39.2053 49.5333 38.992 49.576C38.9493 49.576 38.9067 49.64 38.864 49.768C38.8213 49.896 38.8 49.96 38.8 49.96C38.8 50.3013 38.992 50.408 39.376 50.28C39.4187 50.28 39.4827 50.3227 39.568 50.408C39.6533 50.4507 39.7813 50.5147 39.952 50.6C40.08 50.6 40.1867 50.5573 40.272 50.472C40.4 50.344 40.5493 50.3653 40.72 50.536C40.8907 50.3653 40.9973 50.1947 41.04 50.024C41.3387 50.1093 41.5093 50.3227 41.552 50.664C41.04 50.7067 40.5067 50.792 39.952 50.92C39.44 51.0053 38.9067 51.0907 38.352 51.176V51.944C38.1813 51.9867 38.0533 52.1147 37.968 52.328C37.8827 52.5413 37.7547 52.776 37.584 53.032C37.5413 53.2027 37.4773 53.3733 37.392 53.544C37.3493 53.672 37.264 53.8213 37.136 53.992C37.136 54.0347 37.1147 54.056 37.072 54.056C37.072 54.056 37.072 54.0987 37.072 54.184C36.9013 54.7813 36.7093 55.3573 36.496 55.912C36.3253 56.424 36.1973 56.9787 36.112 57.576C35.9413 58.472 35.7493 59.3893 35.536 60.328C35.3227 61.2667 35.088 62.248 34.832 63.272C34.7893 63.3147 34.7893 63.4 34.832 63.528C34.832 63.9547 34.768 64.3387 34.64 64.68C34.512 65.0213 34.384 65.4053 34.256 65.832C34.256 65.8747 34.192 65.96 34.064 66.088C33.9787 66.216 33.8507 66.3653 33.68 66.536C33.552 66.7067 33.424 66.8987 33.296 67.112C33.168 67.112 33.0613 67.0907 32.976 67.048C32.8907 67.048 32.8053 67.048 32.72 67.048C32.5067 66.664 32.464 66.28 32.592 65.896L33.168 62.44C32.9973 62.6533 32.8053 62.824 32.592 62.952C32.4213 63.08 32.3147 63.3147 32.272 63.656C32.272 63.7413 32.2507 63.8267 32.208 63.912C32.208 63.9973 32.2507 64.104 32.336 64.232C32.3787 64.488 32.3147 64.6373 32.144 64.68C31.888 64.296 31.5893 64.168 31.248 64.296C30.8213 64.296 30.608 64.0827 30.608 63.656C30.5653 63.5707 30.544 63.5067 30.544 63.464C30.544 63.4213 30.5013 63.3573 30.416 63.272C30.2453 63.3573 30.1387 63.4853 30.096 63.656C30.0533 63.8267 29.9893 64.0187 29.904 64.232C29.7333 64.6587 29.584 65.1067 29.456 65.576C29.328 66.088 29.2 66.5787 29.072 67.048C29.072 67.048 29.0507 67.048 29.008 67.048C28.9653 67.048 28.9227 67.0907 28.88 67.176C28.752 66.7493 28.6027 66.3867 28.432 66.088C28.304 65.832 28.048 65.7467 27.664 65.832C27.7493 65.192 27.8347 64.7227 27.92 64.424C28.0053 64.2107 28.0693 63.9973 28.112 63.784C28.1547 63.528 28.1973 63.3147 28.24 63.144C28.4107 62.376 28.6027 61.5867 28.816 60.776C29.072 59.9227 29.3067 59.112 29.52 58.344C29.648 57.9173 29.7973 57.512 29.968 57.128C30.1387 56.7013 30.2453 56.296 30.288 55.912C30.416 55.3147 30.608 54.7813 30.864 54.312C30.9493 54.0987 30.9067 53.8853 30.736 53.672V53.416C30.7787 53.3733 30.8213 53.352 30.864 53.352C31.0773 53.3093 31.2053 53.2667 31.248 53.224C31.2907 53.1813 31.312 53.032 31.312 52.776C31.312 52.52 31.376 52.3493 31.504 52.264C31.5467 52.264 31.632 52.2 31.76 52.072C31.9733 51.688 32.144 51.3253 32.272 50.984C32.4 50.6427 32.5493 50.28 32.72 49.896C32.72 49.8107 32.6987 49.704 32.656 49.576C32.6133 49.448 32.5067 49.3627 32.336 49.32C32.2507 49.2347 32.144 49.1493 32.016 49.064C31.888 48.9787 31.7173 48.936 31.504 48.936C30.9493 49.1067 30.352 49.2347 29.712 49.32C29.072 49.3627 28.4747 49.384 27.92 49.384C27.7493 49.4267 27.5573 49.448 27.344 49.448C27.1733 49.448 26.9813 49.448 26.768 49.448C26.7253 49.4053 26.6827 49.384 26.64 49.384C26.5973 49.3413 26.5547 49.2773 26.512 49.192C26.7253 49.1067 26.9813 48.9573 27.28 48.744C27.5787 48.5307 27.856 48.4027 28.112 48.36C28.6667 48.2747 29.2 48.168 29.712 48.04C30.2667 47.912 30.8 47.784 31.312 47.656C31.7387 47.4427 32.1227 47.3147 32.464 47.272C32.848 47.1867 33.232 47.1013 33.616 47.016C33.744 46.9733 33.872 46.9307 34 46.888C34.128 46.8453 34.2133 46.7387 34.256 46.568C34.4267 46.056 34.6613 45.5867 34.96 45.16C35.3013 44.6907 35.5787 44.2213 35.792 43.752C35.8773 43.7093 35.92 43.6667 35.92 43.624C35.92 43.5387 35.92 43.496 35.92 43.496C35.9627 43.1547 36.048 42.8773 36.176 42.664C36.304 42.4507 36.432 42.2587 36.56 42.088C36.7307 41.6187 36.9653 41.128 37.264 40.616C37.9467 39.5493 38.608 38.4187 39.248 37.224C39.4613 36.9253 39.632 36.648 39.76 36.392C39.888 36.0933 40.0373 35.7947 40.208 35.496V35.112C40.1653 34.9413 40.1867 34.7707 40.272 34.6C40.3573 34.4293 40.4213 34.28 40.464 34.152C40.7627 33.5973 41.0827 33.0213 41.424 32.424C41.7653 31.8267 42.0853 31.2293 42.384 30.632C42.4693 30.4613 42.5973 30.2053 42.768 29.864C42.9813 29.5227 43.5147 28.648 44.368 27.24C44.4533 27.1547 44.4747 26.984 44.432 26.728C44.2187 26.3867 44.0053 26.024 43.792 25.64C43.5787 25.2133 43.344 24.7653 43.088 24.296C43.0453 24.2107 42.896 24.1253 42.64 24.04C42.4267 23.784 42.1707 23.7627 41.872 23.976C41.7867 24.0187 41.7013 24.0613 41.616 24.104C41.5307 24.104 41.4453 24.1467 41.36 24.232C41.4453 23.976 41.5307 23.7413 41.616 23.528C41.744 23.272 41.7653 22.9947 41.68 22.696C41.8507 22.6533 42.0427 22.632 42.256 22.632C42.7253 22.504 42.7893 22.2053 42.448 21.736C42.7893 21.736 43.0453 21.6293 43.216 21.416C43.3867 21.2027 43.5573 20.9893 43.728 20.776H44.304C44.304 20.6907 44.304 20.6053 44.304 20.52C44.304 20.392 44.304 20.2853 44.304 20.2L44.752 20.136C45.3493 20.008 45.776 19.752 46.032 19.368C46.0747 19.24 46.1173 19.1547 46.16 19.112C46.2027 19.0693 46.2453 19.0267 46.288 18.984C46.3733 19.0267 46.48 19.0907 46.608 19.176C46.7787 19.2613 46.9707 19.24 47.184 19.112C47.2693 19.0693 47.3547 19.0907 47.44 19.176C47.5253 19.2613 47.6107 19.3467 47.696 19.432C47.824 19.56 48.016 19.6027 48.272 19.56C48.2293 19.4747 48.208 19.368 48.208 19.24C48.2507 19.112 48.272 19.0267 48.272 18.984C48.1867 18.8987 48.08 18.856 47.952 18.856C47.824 18.856 47.7173 18.8347 47.632 18.792C47.5893 18.664 47.568 18.472 47.568 18.216C47.7813 18.1307 47.952 18.0667 48.08 18.024C48.208 17.9813 48.3147 17.9173 48.4 17.832C48.4853 17.7893 48.5707 17.7893 48.656 17.832C48.7413 17.832 48.8053 17.832 48.848 17.832C49.232 18.0027 49.4667 18.1093 49.552 18.152C49.68 18.152 49.872 18.0667 50.128 17.896C50.3413 17.9813 50.448 18.1093 50.448 18.28L50.704 17.64C50.8747 17.4693 51.0027 17.32 51.088 17.192C51.088 17.2773 51.088 17.3413 51.088 17.384C51.1307 17.4267 51.1733 17.4907 51.216 17.576C51.216 17.576 51.2587 17.6613 51.344 17.832C51.4293 18.3013 51.5787 18.6853 51.792 18.984C52.0053 19.2827 52.2613 19.5387 52.56 19.752C52.9867 20.0507 53.264 20.4133 53.392 20.84C53.4347 21.0107 53.4773 21.2027 53.52 21.416C53.5627 21.5867 53.584 21.736 53.584 21.864C53.6693 22.5893 53.776 23.4853 53.904 24.552C54.0747 25.6187 54.5653 26.5573 55.376 27.368C55.376 27.5387 55.3973 27.6453 55.44 27.688C55.568 27.9013 55.632 28.1147 55.632 28.328C55.632 28.4987 55.6533 28.6693 55.696 28.84C55.7387 29.4373 55.76 30.0133 55.76 30.568C55.8027 31.08 55.8667 31.6347 55.952 32.232V33.064C56.0373 33.6187 56.08 34.1947 56.08 34.792C56.1227 35.3893 56.1653 35.9653 56.208 36.52C56.2933 36.776 56.3147 37.0533 56.272 37.352C56.272 37.608 56.272 37.8853 56.272 38.184H55.952C55.9947 38.44 56.016 38.7173 56.016 39.016C56.0587 39.272 56.08 39.5493 56.08 39.848C56.08 40.104 56.1013 40.36 56.144 40.616C56.1867 40.872 56.2293 41.1067 56.272 41.32C56.3147 41.4907 56.336 41.704 56.336 41.96C56.3787 42.1733 56.4427 42.3867 56.528 42.6C56.528 42.8133 56.5493 43.0693 56.592 43.368C56.6347 43.624 56.6773 43.9013 56.72 44.2C56.7627 44.4987 56.8267 44.8187 56.912 45.16C56.9973 45.4587 57.0613 45.7573 57.104 46.056V47.016C57.1893 47.144 57.2533 47.3147 57.296 47.528C57.3813 47.6987 57.4453 47.848 57.488 47.976C57.5733 48.2747 57.6373 48.616 57.68 49C57.7227 49.3413 57.7653 49.6827 57.808 50.024C57.8933 50.4933 57.9787 50.9413 58.064 51.368C58.192 51.752 58.2773 52.1787 58.32 52.648C58.4053 52.9467 58.4693 53.2453 58.512 53.544C58.5547 53.8 58.6613 54.0987 58.832 54.44L59.024 55.08C58.9387 55.1653 58.9387 55.4213 59.024 55.848C59.1093 55.976 59.152 56.104 59.152 56.232C59.1947 56.36 59.344 56.3813 59.6 56.296C59.8133 56.936 60.0267 57.576 60.24 58.216C60.496 58.856 60.752 59.4747 61.008 60.072C61.1787 60.4987 61.328 60.9253 61.456 61.352C61.6267 61.7787 61.7973 62.184 61.968 62.568C62.0107 62.6107 62.0533 62.696 62.096 62.824C62.1813 62.9093 62.2453 62.9947 62.288 63.08C62.5013 63.336 62.5653 63.72 62.48 64.232C62.4373 64.232 62.3733 64.168 62.288 64.04C62.2453 63.8693 62.1813 63.848 62.096 63.976C62.0533 64.0187 62.032 64.104 62.032 64.232C62.0747 64.36 62.096 64.4667 62.096 64.552C62.0533 64.68 62.032 64.8293 62.032 65C62.0747 65.1707 62.0533 65.384 61.968 65.64C61.968 65.64 61.904 65.6613 61.776 65.704C61.648 65.7467 61.5627 65.832 61.52 65.96C61.4773 66.0027 61.4987 66.1733 61.584 66.472C61.6693 66.984 61.8613 67.432 62.16 67.816C62.3733 68.2427 62.5867 68.6907 62.8 69.16C63.0133 69.6293 63.248 70.0987 63.504 70.568C63.4613 70.568 63.4187 70.568 63.376 70.568C63.3333 70.568 63.2907 70.568 63.248 70.568H61.648ZM27.408 65.064C27.408 65.0213 27.3867 64.9787 27.344 64.936C27.344 64.8933 27.344 64.872 27.344 64.872H27.472C27.472 64.872 27.472 64.8933 27.472 64.936C27.472 64.9787 27.472 65.0213 27.472 65.064H27.408ZM31.184 63.272C31.3547 62.9733 31.376 62.6747 31.248 62.376C31.2053 62.504 31.1627 62.6533 31.12 62.824C31.12 62.952 31.0773 63.0587 30.992 63.144C31.0773 63.144 31.1413 63.1867 31.184 63.272ZM29.072 60.968H29.136C29.136 60.968 29.1573 60.968 29.2 60.968C29.2427 60.968 29.264 60.9467 29.264 60.904C29.6053 60.1787 29.8827 59.496 30.096 58.856C30.352 58.1733 30.6293 57.4907 30.928 56.808C31.0987 56.2533 31.312 55.6987 31.568 55.144C31.824 54.5893 32.0587 54.056 32.272 53.544C32.3147 53.4587 32.336 53.3733 32.336 53.288C32.336 53.2027 32.272 53.0747 32.144 52.904C32.0587 53.1173 31.952 53.2453 31.824 53.288C31.6533 53.7147 31.4613 54.1627 31.248 54.632C31.0347 55.0587 30.8427 55.5067 30.672 55.976C30.416 56.744 30.1387 57.5333 29.84 58.344C29.584 59.112 29.3493 59.88 29.136 60.648C29.0933 60.6907 29.072 60.7973 29.072 60.968ZM32.592 51.752H32.784C33.04 51.624 33.1253 51.4107 33.04 51.112L32.784 51.048C32.528 51.2187 32.464 51.4533 32.592 51.752ZM33.104 50.728C33.104 50.7707 33.1253 50.7707 33.168 50.728C33.2533 50.6853 33.296 50.664 33.296 50.664C33.3813 50.536 33.4453 50.3867 33.488 50.216C33.5733 50.0027 33.5733 49.768 33.488 49.512C33.3173 49.6827 33.2107 49.8747 33.168 50.088C33.1253 50.2587 33.0827 50.4507 33.04 50.664C32.9973 50.664 32.976 50.6853 32.976 50.728C33.0187 50.728 33.0613 50.728 33.104 50.728ZM53.776 67.624H53.84C53.7973 67.624 53.776 67.6027 53.776 67.56C53.6907 67.4747 53.6053 67.3253 53.52 67.112C53.4773 66.9413 53.392 66.792 53.264 66.664C53.264 66.6213 53.3067 66.6 53.392 66.6C53.4773 66.728 53.5413 66.8773 53.584 67.048C53.6693 67.2187 53.7333 67.3893 53.776 67.56C53.776 67.6027 53.776 67.624 53.776 67.624ZM54.16 65.896C53.9893 65.64 53.8613 65.384 53.776 65.128C53.6907 64.872 53.648 64.5307 53.648 64.104C53.7333 64.4453 53.8187 64.744 53.904 65C53.9893 65.2987 54.0747 65.5973 54.16 65.896ZM52.752 63.912C52.5813 63.8693 52.496 63.784 52.496 63.656C52.5387 63.4853 52.5173 63.3573 52.432 63.272C52.6027 63.3147 52.688 63.4 52.688 63.528C52.688 63.6133 52.7093 63.7413 52.752 63.912ZM52.048 62.952C52.0053 62.7813 51.9413 62.6533 51.856 62.568C51.8133 62.44 51.7707 62.312 51.728 62.184C51.8987 62.3547 52.0053 62.6107 52.048 62.952ZM51.664 60.392C51.6213 60.3067 51.6 60.2 51.6 60.072L51.664 60.008C51.664 60.0933 51.6853 60.2213 51.728 60.392H51.664ZM55.184 63.336C55.0987 63.2507 55.056 63.1653 55.056 63.08C55.0987 63.1227 55.12 63.1653 55.12 63.208C55.12 63.2507 55.1413 63.2933 55.184 63.336ZM52.432 60.52L52.368 60.072C52.368 60.0293 52.368 59.9653 52.368 59.88C52.368 59.752 52.3467 59.6453 52.304 59.56C52.432 59.8587 52.4747 60.1787 52.432 60.52ZM51.024 58.984C50.9813 58.8987 50.96 58.7067 50.96 58.408C51.0453 58.7067 51.1307 58.8773 51.216 58.92L51.024 58.984ZM52.112 59.496C52.0693 59.4107 52.0267 59.3467 51.984 59.304C51.984 59.2187 51.9627 59.1333 51.92 59.048C51.9627 59.0053 51.984 58.9627 51.984 58.92C51.984 59.0053 52.0053 59.112 52.048 59.24C52.0907 59.3253 52.1333 59.4107 52.176 59.496H52.112ZM54.992 62.888C54.9493 62.8027 54.8853 62.7173 54.8 62.632C54.7573 62.5467 54.7147 62.4827 54.672 62.44L54.48 61.288C54.48 61.2027 54.48 61.096 54.48 60.968C54.48 60.84 54.4587 60.7333 54.416 60.648C54.416 60.776 54.416 60.904 54.416 61.032C54.4587 61.1173 54.48 61.2027 54.48 61.288C54.5653 61.5867 54.6507 61.864 54.736 62.12C54.8213 62.3333 54.9067 62.5893 54.992 62.888ZM51.408 58.536C51.3227 58.3653 51.2373 58.1947 51.152 58.024C51.1093 57.8533 51.1093 57.6827 51.152 57.512C51.1947 57.64 51.2373 57.7893 51.28 57.96C51.3653 58.088 51.408 58.28 51.408 58.536ZM52.688 58.856C52.4747 58.5573 52.3467 58.3653 52.304 58.28C52.304 58.152 52.368 58.0027 52.496 57.832C52.7093 58.088 52.7733 58.4293 52.688 58.856ZM56.208 62.44C56.2933 62.0987 56.2933 61.864 56.208 61.736C56.0373 61.608 55.9307 61.5013 55.888 61.416C55.888 61.3307 55.8667 61.1173 55.824 60.776C55.7387 60.6907 55.696 60.6053 55.696 60.52C55.6533 60.8187 55.6747 61.16 55.76 61.544C55.8453 61.928 55.9947 62.2267 56.208 62.44ZM51.6 57L51.664 56.936C51.664 56.936 51.6427 56.936 51.6 56.936C51.6 56.936 51.6 56.9573 51.6 57ZM50.704 56.488V55.72C50.8747 56.0187 50.8747 56.2747 50.704 56.488ZM56.528 61.544C56.6133 61.288 56.6347 61.1387 56.592 61.096C56.592 61.0107 56.5067 60.904 56.336 60.776C56.3787 60.904 56.4 61.0107 56.4 61.096C56.4427 61.1813 56.4853 61.3307 56.528 61.544ZM54.608 59.368C54.6933 58.7707 54.608 58.4933 54.352 58.536L54.224 58.728C54.3093 58.7707 54.352 58.856 54.352 58.984C54.3947 59.0693 54.48 59.1973 54.608 59.368ZM53.008 57.32C53.008 57.2347 53.008 57.1493 53.008 57.064C53.008 56.936 53.008 56.8507 53.008 56.808C53.008 56.8507 53.008 56.936 53.008 57.064C53.008 57.1493 53.0293 57.2347 53.072 57.32H53.008ZM56.208 59.752C56.2933 59.624 56.272 59.5173 56.144 59.432C56.016 59.304 55.9733 59.176 56.016 59.048V58.152C55.7173 58.8773 55.7813 59.4107 56.208 59.752ZM48.144 50.216C48.144 50.216 48.1227 50.1947 48.08 50.152C48.0373 50.0667 48.016 50.024 48.016 50.024V49.96C48.0587 50.0027 48.1013 50.024 48.144 50.024V50.216ZM55.76 57.64C55.76 57.64 55.76 57.6187 55.76 57.576C55.76 57.5333 55.7813 57.512 55.824 57.512C55.7387 57.3413 55.696 57.2347 55.696 57.192C55.696 57.4053 55.7173 57.5547 55.76 57.64ZM55.376 55.016H55.44C55.3973 54.888 55.376 54.7813 55.376 54.696C55.376 54.568 55.3547 54.4187 55.312 54.248H55.248C55.2907 54.4187 55.312 54.568 55.312 54.696C55.312 54.7813 55.3333 54.888 55.376 55.016ZM60.944 61.16L61.008 60.968C60.9653 60.9253 60.944 60.84 60.944 60.712L60.816 60.84C60.816 60.8827 60.8373 60.9253 60.88 60.968C60.9227 61.0107 60.944 61.0747 60.944 61.16ZM60.496 59.688H60.624C60.624 59.6027 60.5813 59.5173 60.496 59.432H60.432C60.4747 59.5173 60.496 59.6027 60.496 59.688ZM59.664 57.832C59.792 57.832 59.856 57.768 59.856 57.64C59.856 57.5547 59.792 57.448 59.664 57.32V57.832ZM40.08 45.352C40.2507 45.5227 40.4 45.5227 40.528 45.352C40.656 45.1813 40.8053 45.0107 40.976 44.84C40.8907 45.224 40.9333 45.416 41.104 45.416C41.2747 45.3733 41.4027 45.352 41.488 45.352C42.384 45.2667 43.1947 45.2027 43.92 45.16C44.688 45.1173 45.4773 45.032 46.288 44.904H48.336C48.2933 44.7333 48.272 44.584 48.272 44.456C48.3147 44.2853 48.336 44.1147 48.336 43.944C48.336 43.816 48.336 43.688 48.336 43.56C48.336 43.3893 48.336 43.2827 48.336 43.24L48.08 41.576C48.08 41.4907 48.0587 41.4053 48.016 41.32C47.9733 41.192 48.0587 41.1067 48.272 41.064C48.4427 41.0213 48.528 40.8933 48.528 40.68C48.528 40.424 48.4427 40.2747 48.272 40.232C47.9733 40.1467 47.8027 40.0187 47.76 39.848C47.76 39.6347 47.76 39.4213 47.76 39.208C47.504 37.8 47.376 36.4133 47.376 35.048C47.376 33.64 47.376 32.2747 47.376 30.952C47.3333 30.6533 47.312 30.2267 47.312 29.672C47.0133 29.8427 46.8 30.0347 46.672 30.248C46.5867 30.4187 46.5013 30.6107 46.416 30.824C46.2453 31.2933 46.0533 31.7413 45.84 32.168C45.6693 32.5947 45.4773 33 45.264 33.384C44.9653 34.1947 44.6667 34.984 44.368 35.752C44.112 36.4773 43.8133 37.2027 43.472 37.928C43.088 38.7387 42.7253 39.5493 42.384 40.36C42.0853 41.1707 41.6373 41.832 41.04 42.344C40.9973 42.344 40.976 42.3867 40.976 42.472C40.976 42.984 40.8693 43.4107 40.656 43.752C40.4427 44.0507 40.2933 44.4347 40.208 44.904C40.1653 44.9893 40.1227 45.0747 40.08 45.16C40.08 45.2453 40.08 45.3093 40.08 45.352ZM56.784 46.248C56.784 46.1627 56.784 46.0987 56.784 46.056C56.8267 45.9707 56.848 45.8853 56.848 45.8C56.7627 45.4587 56.656 45.1173 56.528 44.776C56.4427 44.4347 56.3787 44.072 56.336 43.688C56.336 43.4747 56.272 43.2827 56.144 43.112C56.0587 42.8987 56.0373 42.7067 56.08 42.536C56.1227 42.3227 56.1013 42.152 56.016 42.024C55.9733 41.8533 55.9093 41.6827 55.824 41.512C55.7813 41.4267 55.76 41.3413 55.76 41.256C55.76 41.128 55.7173 41.0213 55.632 40.936L55.312 38.696C55.312 38.44 55.248 38.1627 55.12 37.864C55.0773 37.5227 54.992 37.2453 54.864 37.032C54.736 36.776 54.5867 36.4987 54.416 36.2C54.288 36.456 54.2453 36.6907 54.288 36.904C54.3733 37.0747 54.416 37.2667 54.416 37.48C54.416 37.6507 54.4587 37.8 54.544 37.928C54.6293 38.056 54.672 38.184 54.672 38.312C54.672 38.6533 54.672 38.9947 54.672 39.336C54.672 39.6773 54.7573 40.04 54.928 40.424V40.552C55.0133 40.8507 55.056 41.128 55.056 41.384C55.0987 41.64 55.184 41.9387 55.312 42.28C55.3547 42.4933 55.3973 42.7493 55.44 43.048C55.5253 43.3467 55.6747 43.6453 55.888 43.944C55.9733 44.1147 56.0373 44.3067 56.08 44.52C56.1653 44.7333 56.2507 44.9253 56.336 45.096C56.4213 45.2667 56.464 45.4587 56.464 45.672C56.5067 45.8427 56.6133 46.0347 56.784 46.248ZM54.288 35.304H54.416C54.3733 35.0907 54.3307 34.92 54.288 34.792C54.288 34.6213 54.288 34.472 54.288 34.344H54.224C54.224 34.472 54.224 34.6213 54.224 34.792C54.224 34.92 54.2453 35.0907 54.288 35.304Z" fill="#FF5D8F"/>
</svg>
