<svg width="61" height="84" viewBox="0 0 61 84" fill="none" xmlns="http://www.w3.org/2000/svg">
<path d="M36.098 83.8235C36.1833 83.7809 36.2473 83.7169 36.29 83.6315C36.3753 83.5889 36.4607 83.5462 36.546 83.5035C36.3327 83.1622 36.0767 83.0129 35.778 83.0555H34.37C34.1993 83.0129 34.0073 83.0129 33.794 83.0555C33.6233 83.0982 33.4527 83.0769 33.282 82.9915C33.2393 82.9489 33.1753 82.9062 33.09 82.8635C33.0047 82.8635 32.9193 82.8422 32.834 82.7995L32.514 82.7355C32.0873 82.8209 31.7033 82.7569 31.362 82.5435C31.618 82.5009 31.874 82.4795 32.13 82.4795C32.4287 82.4795 32.7273 82.4795 33.026 82.4795C33.1967 82.4369 33.346 82.3942 33.474 82.3515C33.602 82.3089 33.666 82.1595 33.666 81.9035H34.626C34.754 81.8609 34.882 81.8182 35.01 81.7755C35.138 81.7329 35.2873 81.6902 35.458 81.6475C35.6713 81.6475 35.7567 81.4982 35.714 81.1995C35.5433 81.1995 35.3727 81.1995 35.202 81.1995C35.0313 81.1569 34.882 81.0502 34.754 80.8795C34.754 80.8795 34.69 80.8795 34.562 80.8795C34.4767 80.8795 34.4127 80.9222 34.37 81.0075C34.1993 81.1782 33.986 81.2635 33.73 81.2635C33.5167 81.2209 33.3033 81.1995 33.09 81.1995C32.962 81.1569 32.834 81.1569 32.706 81.1995C32.578 81.1995 32.45 81.1995 32.322 81.1995C32.1513 81.2849 31.938 81.3702 31.682 81.4555C31.4687 81.4555 31.3193 81.4342 31.234 81.3915C31.106 81.2209 30.8927 81.1995 30.594 81.3275C30.4233 81.0715 30.2953 80.9222 30.21 80.8795C30.1673 80.8369 30.018 80.8369 29.762 80.8795C29.378 81.0075 29.0153 81.0502 28.674 81.0075C28.5887 80.9222 28.4607 80.9009 28.29 80.9435C28.162 80.9862 28.034 81.0289 27.906 81.0715C27.9913 81.2422 28.1407 81.3062 28.354 81.2635C28.61 81.2209 28.738 81.3489 28.738 81.6475C28.738 81.6475 28.7167 81.6475 28.674 81.6475C28.674 81.6902 28.6527 81.7115 28.61 81.7115C28.1833 81.6689 27.7353 81.6475 27.266 81.6475C26.8393 81.6475 26.3913 81.6475 25.922 81.6475C25.666 81.6049 25.41 81.5622 25.154 81.5195C24.9407 81.4342 24.706 81.3702 24.45 81.3275C24.4073 81.3275 24.3647 81.3062 24.322 81.2635C24.322 81.2209 24.3007 81.1995 24.258 81.1995C23.9593 80.9862 23.7247 80.8795 23.554 80.8795C23.426 80.8795 23.234 80.9649 22.978 81.1355C22.466 80.8795 21.9967 80.5809 21.57 80.2395C21.1433 79.8555 20.7167 79.4929 20.29 79.1515C20.2047 79.0662 20.1193 78.9595 20.034 78.8315C19.9487 78.7035 19.842 78.6182 19.714 78.5755C19.5433 78.4475 19.458 78.2982 19.458 78.1275C19.4153 77.9569 19.4153 77.7862 19.458 77.6155C19.5433 77.4449 19.4793 77.3169 19.266 77.2315C19.01 77.0182 18.8393 76.7835 18.754 76.5275C18.626 76.2289 18.5193 75.9302 18.434 75.6315C18.3913 75.5035 18.3487 75.3969 18.306 75.3115C18.2207 75.1835 18.1567 75.0555 18.114 74.9275V74.3515C18.114 74.0955 18.2633 74.0529 18.562 74.2235C18.9033 74.2662 19.2233 74.4155 19.522 74.6715C19.778 74.8849 20.0553 75.1195 20.354 75.3755C20.482 75.4182 20.546 75.6102 20.546 75.9515C20.5887 76.2502 20.7807 76.4635 21.122 76.5915C21.2073 76.5915 21.314 76.6555 21.442 76.7835C21.954 77.1249 22.4873 77.3169 23.042 77.3595C23.426 77.4449 23.81 77.5515 24.194 77.6795C24.578 77.7649 24.962 77.8289 25.346 77.8715C25.5593 77.9142 25.7513 77.9995 25.922 78.1275C26.0927 78.2129 26.2847 78.2342 26.498 78.1915L25.922 78.7035C26.05 78.9595 26.2207 79.0875 26.434 79.0875C26.6473 79.0449 26.8607 79.0235 27.074 79.0235C27.0313 79.1942 27.01 79.3649 27.01 79.5355C27.01 79.7062 26.9673 79.8769 26.882 80.0475C26.8393 80.3035 26.6473 80.3889 26.306 80.3035C26.178 80.2182 26.0713 80.1969 25.986 80.2395C25.9007 80.2395 25.794 80.2395 25.666 80.2395C25.3673 80.2395 25.1753 80.1969 25.09 80.1115C24.6207 79.9835 24.194 80.0262 23.81 80.2395L23.874 80.3035C24.0873 80.3462 24.3007 80.4102 24.514 80.4955C24.7273 80.5382 24.9407 80.5595 25.154 80.5595H25.73C26.2847 80.8155 26.882 80.8795 27.522 80.7515C27.8633 80.6662 28.226 80.6235 28.61 80.6235C28.994 80.5809 29.3993 80.5382 29.826 80.4955C29.954 80.4955 30.082 80.5169 30.21 80.5595C30.338 80.5595 30.466 80.6235 30.594 80.7515C30.594 80.8369 30.7007 80.8795 30.914 80.8795C30.914 80.8795 30.9353 80.8582 30.978 80.8155C31.0207 80.7302 31.042 80.6449 31.042 80.5595V80.3675C31.938 80.3675 32.8553 80.2395 33.794 79.9835C34.0073 79.8982 34.1993 79.7915 34.37 79.6635C34.5833 79.4929 34.7753 79.3435 34.946 79.2155C34.8607 78.7889 34.7753 78.5755 34.69 78.5755C34.6047 78.5755 34.4127 78.6822 34.114 78.8955C33.8153 78.4689 33.3887 78.3835 32.834 78.6395C32.45 78.8102 32.0873 78.9169 31.746 78.9595C31.618 78.9595 31.4687 78.9595 31.298 78.9595C31.17 78.9169 31.042 78.8955 30.914 78.8955C30.8713 78.6822 30.9567 78.5329 31.17 78.4475C31.3833 78.3195 31.3833 78.1489 31.17 77.9355C31.298 77.8502 31.4047 77.7862 31.49 77.7435C31.618 77.7009 31.7673 77.6582 31.938 77.6155C32.1087 77.6155 32.2793 77.6155 32.45 77.6155C32.6633 77.6155 32.8553 77.5302 33.026 77.3595C32.77 77.1462 32.514 77.1035 32.258 77.2315C32.0447 77.3595 31.8313 77.4022 31.618 77.3595C31.618 77.1035 31.5327 76.8902 31.362 76.7195C31.618 76.6342 31.8527 76.5915 32.066 76.5915C32.2793 76.5489 32.4927 76.5062 32.706 76.4635C33.1753 76.3355 33.666 76.2075 34.178 76.0795C34.7327 75.9089 35.2873 75.7169 35.842 75.5035C36.482 75.3755 36.9727 75.0769 37.314 74.6075L37.698 74.3515C38.21 74.3089 38.402 74.0529 38.274 73.5835C38.274 73.2849 38.402 73.0715 38.658 72.9435C38.9993 72.7302 39.3193 72.4955 39.618 72.2395C39.9167 71.9835 40.2367 71.7702 40.578 71.5995C40.7913 71.4715 40.9407 71.3009 41.026 71.0875C41.1113 70.8315 41.1753 70.6182 41.218 70.4475C41.3033 70.2769 41.346 70.0422 41.346 69.7435C41.218 69.7009 41.0687 69.6369 40.898 69.5515C40.77 69.4235 40.5993 69.4022 40.386 69.4875C40.1727 69.4875 39.9167 69.3809 39.618 69.1675C39.1913 68.9115 38.786 68.6555 38.402 68.3995C38.018 68.1435 37.6127 67.8662 37.186 67.5675C37.0153 67.4822 36.8447 67.3969 36.674 67.3115C36.5033 67.2262 36.3113 67.1409 36.098 67.0555C35.3727 66.6715 34.7113 66.1382 34.114 65.4555C33.474 65.0289 32.8767 64.5169 32.322 63.9195C32.1513 63.6635 31.938 63.4289 31.682 63.2155C31.4687 62.9595 31.2553 62.7462 31.042 62.5755C30.9567 62.4902 30.8713 62.4049 30.786 62.3195C30.7007 62.1915 30.6153 62.0635 30.53 61.9355C30.3167 61.5942 30.1033 61.2529 29.89 60.9115C29.6767 60.5275 29.3993 60.1862 29.058 59.8875C28.9727 59.7595 28.9087 59.6315 28.866 59.5035C28.8233 59.3755 28.8447 59.2262 28.93 59.0555C28.6313 58.9702 28.418 58.8209 28.29 58.6075C28.162 58.3515 28.034 58.1382 27.906 57.9675C27.8633 57.8395 27.7993 57.7115 27.714 57.5835C27.6713 57.4555 27.6073 57.3275 27.522 57.1995C27.266 56.9435 27.202 56.6875 27.33 56.4315C27.3727 56.5169 27.4153 56.6235 27.458 56.7515C27.5433 56.8369 27.6073 56.9222 27.65 57.0075C27.8633 57.0075 28.0553 57.0502 28.226 57.1355C28.226 57.0075 28.2047 56.8795 28.162 56.7515C28.162 56.6235 28.162 56.4955 28.162 56.3675C28.1193 56.2395 28.098 56.0049 28.098 55.6635V54.8315C28.1407 54.4049 28.1833 53.9782 28.226 53.5515C28.2687 53.0822 28.3113 52.6129 28.354 52.1435C28.3967 51.8875 28.4607 51.6529 28.546 51.4395C28.6313 51.2262 28.6953 50.9915 28.738 50.7355C28.9087 50.3089 29.0793 49.9035 29.25 49.5195C29.4207 49.1355 29.5913 48.7302 29.762 48.3035L30.338 47.4075C30.4233 47.2795 30.5087 47.1729 30.594 47.0875C30.722 46.9595 30.8073 46.8102 30.85 46.6395C30.8927 46.5115 30.9567 46.3835 31.042 46.2555C31.17 46.1275 31.2767 46.0209 31.362 45.9355C31.618 45.7222 31.8527 45.5302 32.066 45.3595C32.322 45.1889 32.578 44.9969 32.834 44.7835C32.962 44.6982 33.09 44.6555 33.218 44.6555C33.3887 44.6129 33.538 44.6555 33.666 44.7835C33.154 45.1675 32.834 45.6369 32.706 46.1915L32.77 46.3195C32.8553 46.2342 32.9407 46.1915 33.026 46.1915C33.1113 46.1915 33.1753 46.1702 33.218 46.1275C33.3033 46.0422 33.3887 45.9569 33.474 45.8715C33.5593 45.7435 33.6233 45.6155 33.666 45.4875C33.7513 45.4875 33.794 45.4662 33.794 45.4235C33.8367 45.3809 33.858 45.3595 33.858 45.3595C34.0287 45.3595 34.1353 45.3382 34.178 45.2955C34.434 45.1675 34.6687 45.0395 34.882 44.9115C35.138 44.7409 35.394 44.5702 35.65 44.3995L35.522 44.2715C35.266 44.2715 35.1167 44.2502 35.074 44.2075C35.0313 44.1649 34.9887 44.0155 34.946 43.7595C34.9033 43.6742 34.8393 43.5889 34.754 43.5035C34.7113 43.3755 34.6473 43.2475 34.562 43.1195L34.882 42.7995C34.37 42.4155 34.3913 42.0742 34.946 41.7755C34.818 41.6049 34.6473 41.5409 34.434 41.5835C34.306 41.6689 34.1993 41.7542 34.114 41.8395C34.0287 41.9249 33.922 41.9889 33.794 42.0315C33.7513 42.0742 33.6873 42.0955 33.602 42.0955C33.5167 42.0955 33.4313 42.1382 33.346 42.2235C33.4313 41.9675 33.538 41.7969 33.666 41.7115C33.922 41.4129 34.1993 41.1142 34.498 40.8155C34.7967 40.5169 35.0953 40.2822 35.394 40.1115C35.7353 39.8129 36.0767 39.5569 36.418 39.3435C36.802 39.0875 37.186 38.8315 37.57 38.5755C37.7833 38.4049 37.9967 38.2555 38.21 38.1275C38.4233 37.9569 38.6153 37.7862 38.786 37.6155C38.9567 37.4875 39.1273 37.3382 39.298 37.1675C39.5113 36.9542 39.7033 36.7622 39.874 36.5915C39.874 36.5489 39.8953 36.5275 39.938 36.5275C39.9807 36.4849 40.0233 36.4209 40.066 36.3355C39.7247 36.4209 39.4047 36.5275 39.106 36.6555C38.8073 36.7835 38.4873 36.8475 38.146 36.8475C38.2313 36.6342 38.338 36.4849 38.466 36.3995L39.554 36.0155C39.7247 35.9302 39.874 35.8662 40.002 35.8235C40.13 35.7809 40.2793 35.7382 40.45 35.6955C40.7913 35.6102 41.154 35.5249 41.538 35.4395C41.922 35.3115 42.2633 35.2262 42.562 35.1835C42.69 35.0982 42.818 35.0342 42.946 34.9915C43.074 34.9062 43.202 34.8209 43.33 34.7355C43.6287 34.5649 43.906 34.5649 44.162 34.7355C44.3753 34.8635 44.5673 34.9915 44.738 35.1195C44.9513 35.2049 45.1007 35.3542 45.186 35.5675C45.9967 35.6955 46.658 36.1435 47.17 36.9115C47.17 36.9115 47.17 36.9329 47.17 36.9755C47.17 36.9755 47.1913 36.9755 47.234 36.9755L48.258 37.9995C48.5567 38.4689 48.898 38.9382 49.282 39.4075C49.538 39.7489 49.7087 40.1115 49.794 40.4955C49.922 40.8795 50.05 41.2422 50.178 41.5835C50.4767 42.2662 50.4767 42.9702 50.178 43.6955C50.178 43.7809 50.1567 43.8662 50.114 43.9515C50.114 44.0369 50.1353 44.1222 50.178 44.2075C50.178 44.4209 50.1993 44.5915 50.242 44.7195C50.2847 44.8475 50.2207 45.0182 50.05 45.2315C50.0073 45.2742 49.986 45.3595 49.986 45.4875C50.0287 45.6155 50.05 45.7222 50.05 45.8075H49.41C49.026 45.8502 48.962 46.0422 49.218 46.3835C49.3887 46.6822 49.3247 46.8742 49.026 46.9595C48.8553 47.0022 48.77 47.1515 48.77 47.4075C48.77 47.5355 48.7273 47.6849 48.642 47.8555C48.5993 47.9835 48.5567 48.1329 48.514 48.3035C48.4713 48.0475 48.4073 47.8342 48.322 47.6635C48.2793 47.4929 48.2367 47.3222 48.194 47.1515C48.194 47.0662 48.1513 47.0235 48.066 47.0235C48.0233 46.9809 47.9807 46.9382 47.938 46.8955L47.682 47.2795C47.6393 47.5782 47.5967 47.8769 47.554 48.1755C47.5113 48.4742 47.4687 48.7729 47.426 49.0715C47.3833 49.4982 47.3407 49.9249 47.298 50.3515C47.298 50.7782 47.1487 51.1835 46.85 51.5675C46.6793 51.3969 46.594 51.1835 46.594 50.9275C46.6367 50.6715 46.6153 50.4155 46.53 50.1595C46.402 50.3302 46.2953 50.5222 46.21 50.7355C46.1247 50.9062 46.018 51.0555 45.89 51.1835C45.8047 51.3115 45.698 51.4609 45.57 51.6315C45.442 51.8022 45.25 51.9302 44.994 52.0155C44.9513 51.7595 44.93 51.5249 44.93 51.3115C44.93 51.0555 44.8873 50.8422 44.802 50.6715C44.802 50.3302 44.738 50.0955 44.61 49.9675C44.5673 49.9249 44.5247 49.8609 44.482 49.7755C44.482 49.6902 44.4607 49.6262 44.418 49.5835C44.418 49.3702 44.3967 49.1782 44.354 49.0075C44.226 49.0502 44.0767 49.1569 43.906 49.3275C43.906 49.2849 43.8847 49.2422 43.842 49.1995C43.842 49.1569 43.842 49.1355 43.842 49.1355C43.842 49.0502 43.842 48.9862 43.842 48.9435C43.8847 48.8582 43.906 48.7515 43.906 48.6235C43.778 48.7089 43.6073 48.7515 43.394 48.7515C43.5647 48.4955 43.6713 48.2395 43.714 47.9835C43.7993 47.7275 43.7567 47.4502 43.586 47.1515C43.5433 47.1942 43.5007 47.2582 43.458 47.3435C43.4153 47.4289 43.394 47.4929 43.394 47.5355H43.33C43.2873 47.3649 43.266 47.1942 43.266 47.0235C43.266 46.8529 43.2233 46.6609 43.138 46.4475C42.9673 46.4475 42.818 46.4475 42.69 46.4475C42.562 46.4475 42.4127 46.4902 42.242 46.5755C41.3887 46.7035 40.6633 46.8955 40.066 47.1515C39.2553 47.4075 38.53 47.7915 37.89 48.3035C37.762 48.4315 37.6127 48.5809 37.442 48.7515C37.314 48.8795 37.1433 49.0075 36.93 49.1355C36.7167 49.3062 36.5247 49.5409 36.354 49.8395C36.226 50.0955 36.0553 50.3302 35.842 50.5435C35.6713 50.8849 35.458 51.2262 35.202 51.5675C34.9887 51.9089 34.7753 52.2502 34.562 52.5915C34.306 52.8902 34.1353 53.0182 34.05 52.9755C34.0073 52.9329 33.9433 53.1035 33.858 53.4875C33.8153 53.6582 33.8367 53.8715 33.922 54.1275C34.0073 54.3835 34.0713 54.6395 34.114 54.8955C34.3273 55.3222 34.5193 55.7702 34.69 56.2395C34.9033 56.6662 35.1593 57.0929 35.458 57.5195C35.97 58.1169 36.482 58.7142 36.994 59.3115C37.5487 59.8662 38.1247 60.3782 38.722 60.8475C39.1487 61.1889 39.5753 61.5302 40.002 61.8715C40.4713 62.1702 40.9193 62.4902 41.346 62.8315C41.7727 63.0875 42.178 63.3435 42.562 63.5995C42.9887 63.8555 43.4153 64.1115 43.842 64.3675L46.338 66.0315C46.4233 66.0742 46.5513 66.2235 46.722 66.4795C46.8073 66.6502 46.914 66.7995 47.042 66.9275C47.2127 67.0555 47.3833 67.1835 47.554 67.3115C48.066 67.5675 48.4927 67.8875 48.834 68.2715C49.218 68.6555 49.5593 69.0822 49.858 69.5515C50.114 69.9355 50.306 70.3409 50.434 70.7675C50.6047 71.1942 50.8393 71.5782 51.138 71.9195C51.1807 71.9622 51.1807 72.0475 51.138 72.1755C51.138 72.3035 51.1593 72.4315 51.202 72.5595C51.2873 72.5595 51.3513 72.5809 51.394 72.6235C51.4793 72.6662 51.586 72.6875 51.714 72.6875C51.714 72.8582 51.6927 73.1142 51.65 73.4555C51.65 73.7969 51.5647 74.4155 51.394 75.3115C51.3087 75.3542 51.2233 75.4182 51.138 75.5035C51.0527 75.5462 50.9673 75.6102 50.882 75.6955C50.882 75.9942 50.9033 76.2289 50.946 76.3995C50.7753 76.4422 50.6687 76.4209 50.626 76.3355C50.626 76.2502 50.5833 76.1862 50.498 76.1435C50.4127 75.9729 50.306 75.8875 50.178 75.8875C49.8367 75.9729 49.7087 76.1009 49.794 76.2715C49.8367 76.3995 49.8153 76.4849 49.73 76.5275C49.6873 76.5702 49.6233 76.6342 49.538 76.7195C49.0687 77.0182 48.6207 77.4875 48.194 78.1275C48.066 78.4262 47.874 78.6822 47.618 78.8955C47.4047 79.0662 47.17 79.2582 46.914 79.4715C46.8713 79.5142 46.786 79.5569 46.658 79.5995C46.5727 79.6422 46.466 79.6635 46.338 79.6635C45.826 79.5355 45.4847 79.6849 45.314 80.1115C45.314 80.3675 45.186 80.5382 44.93 80.6235C44.802 80.6235 44.738 80.7089 44.738 80.8795C44.6953 81.0502 44.61 81.1995 44.482 81.3275C44.4393 81.3702 44.3753 81.4129 44.29 81.4555C44.2473 81.4555 44.1833 81.4982 44.098 81.5835H43.97C43.6713 81.8395 43.3513 81.7969 43.01 81.4555C42.8393 81.4982 42.69 81.5195 42.562 81.5195C42.434 81.5622 42.3273 81.6049 42.242 81.6475C42.0287 81.7329 41.8367 81.8182 41.666 81.9035C41.4953 82.0315 41.3247 82.1382 41.154 82.2235C41.1113 82.2662 41.0687 82.3089 41.026 82.3515C40.9833 82.4369 40.9407 82.4795 40.898 82.4795C40.6847 82.4369 40.514 82.4582 40.386 82.5435C40.3007 82.6715 40.194 82.7569 40.066 82.7995C39.938 82.8849 39.81 82.9275 39.682 82.9275C39.554 82.9275 39.426 82.9275 39.298 82.9275C39.1273 83.0982 38.9353 83.1835 38.722 83.1835C38.5513 83.2262 38.3593 83.2689 38.146 83.3115C38.018 83.3542 37.89 83.3969 37.762 83.4395C37.634 83.4822 37.506 83.5249 37.378 83.5675C37.1647 83.6102 36.9513 83.6529 36.738 83.6955C36.5247 83.7809 36.3113 83.8235 36.098 83.8235ZM22.914 78.6395C23.0847 78.7249 23.1913 78.7035 23.234 78.5755C23.0207 78.2342 22.6793 78.0849 22.21 78.1275C22.21 78.3409 22.2953 78.4689 22.466 78.5115C22.6367 78.5542 22.786 78.5969 22.914 78.6395ZM27.074 78.1915C27.2447 78.1062 27.458 78.0849 27.714 78.1275C27.458 78.1275 27.2447 78.1489 27.074 78.1915ZM30.594 76.8475V76.7195C30.6793 76.7195 30.7433 76.7195 30.786 76.7195C30.8713 76.7195 30.9567 76.7195 31.042 76.7195V76.7835C30.9567 76.7835 30.8713 76.8049 30.786 76.8475C30.7433 76.8475 30.6793 76.8475 30.594 76.8475ZM39.298 82.9275C39.3833 82.8422 39.4687 82.7782 39.554 82.7355C39.682 82.7355 39.746 82.6502 39.746 82.4795C39.5327 82.3942 39.3833 82.3515 39.298 82.3515C39.2553 82.3942 39.1487 82.5435 38.978 82.7995C39.1487 82.7995 39.2553 82.8422 39.298 82.9275ZM35.522 79.2155C35.778 79.1729 36.034 79.1302 36.29 79.0875C36.5887 79.0449 36.866 78.9382 37.122 78.7675C37.25 78.7675 37.314 78.7035 37.314 78.5755C37.314 78.4902 37.2713 78.4262 37.186 78.3835C37.1433 78.2982 37.1007 78.2342 37.058 78.1915C36.9727 78.1915 36.8873 78.2129 36.802 78.2555C36.7167 78.2982 36.6313 78.3195 36.546 78.3195C36.4607 78.3195 36.3753 78.3409 36.29 78.3835C36.2473 78.3835 36.1833 78.3835 36.098 78.3835C35.7993 78.3409 35.6073 78.3835 35.522 78.5115C35.4793 78.5969 35.4793 78.8315 35.522 79.2155ZM44.802 81.3915C44.7593 81.2635 44.738 81.0929 44.738 80.8795C44.738 80.9649 44.7807 81.0289 44.866 81.0715C44.9513 81.1142 44.93 81.2209 44.802 81.3915ZM45.506 81.3915C45.506 80.9649 45.698 80.7515 46.082 80.7515C46.1247 80.7515 46.146 80.7729 46.146 80.8155C46.1033 80.9009 46.018 80.9862 45.89 81.0715C45.762 81.1569 45.634 81.2635 45.506 81.3915ZM26.818 54.0635C26.69 53.8502 26.6473 53.6369 26.69 53.4235C26.7753 53.2102 26.818 52.9755 26.818 52.7195C26.946 52.9329 27.01 53.1249 27.01 53.2955C27.0527 53.4662 27.074 53.6369 27.074 53.8075C27.074 53.8502 27.0313 53.8929 26.946 53.9355C26.9033 53.9782 26.8607 54.0209 26.818 54.0635ZM28.418 49.0075C28.3753 48.9222 28.3327 48.8582 28.29 48.8155C28.2473 48.7302 28.2047 48.6449 28.162 48.5595C28.29 48.4742 28.418 48.3889 28.546 48.3035C28.674 48.2182 28.8233 48.1329 28.994 48.0475C28.9087 48.3889 28.8233 48.6662 28.738 48.8795C28.738 48.9222 28.6953 48.9649 28.61 49.0075C28.5247 49.0075 28.4607 49.0075 28.418 49.0075ZM29.762 47.1515C29.5913 46.6395 29.7833 46.3622 30.338 46.3195C30.2953 46.6182 30.1033 46.8955 29.762 47.1515ZM34.434 44.6555C34.3913 44.5275 34.37 44.4635 34.37 44.4635C34.37 44.4209 34.434 44.3995 34.562 44.3995C34.562 44.3995 34.562 44.4209 34.562 44.4635C34.6047 44.4635 34.626 44.4635 34.626 44.4635L34.434 44.6555ZM36.93 43.3755C37.1433 43.2902 37.3353 43.2262 37.506 43.1835C37.6767 43.0982 37.8047 42.9275 37.89 42.6715C37.5913 42.5862 37.3993 42.6075 37.314 42.7355C37.2713 42.8209 37.1433 43.0342 36.93 43.3755ZM36.354 42.8635C36.6527 42.8209 36.9087 42.6502 37.122 42.3515C37.2927 42.0955 37.5273 42.0742 37.826 42.2875C37.9113 42.3729 38.018 42.4369 38.146 42.4795C38.274 42.5222 38.402 42.5862 38.53 42.6715C38.7433 42.5009 38.9353 42.3302 39.106 42.1595C39.3193 41.9462 39.554 41.8182 39.81 41.7755C40.066 41.6902 40.194 41.5195 40.194 41.2635C40.322 41.1355 40.386 40.9435 40.386 40.6875C40.3433 40.6022 40.2793 40.5382 40.194 40.4955C40.1513 40.4102 40.1087 40.3249 40.066 40.2395C40.2793 39.8982 40.4927 39.8129 40.706 39.9835C40.962 40.1115 41.1967 40.1755 41.41 40.1755C41.4527 40.0475 41.4953 39.9195 41.538 39.7915C41.5807 39.6635 41.6447 39.5142 41.73 39.3435C41.602 39.3435 41.4953 39.3435 41.41 39.3435C41.3247 39.3009 41.2393 39.3009 41.154 39.3435C40.9407 39.3862 40.7273 39.4502 40.514 39.5355C40.3007 39.5782 40.0873 39.6209 39.874 39.6635C39.7033 39.7062 39.5753 39.7702 39.49 39.8555C39.4047 39.9409 39.362 40.1115 39.362 40.3675C39.618 40.5382 39.746 40.6875 39.746 40.8155C39.7887 40.9009 39.7033 41.0502 39.49 41.2635C39.4047 41.1782 39.3193 41.0502 39.234 40.8795L38.53 41.5835C38.402 41.4555 38.21 41.4129 37.954 41.4555C37.7407 41.4982 37.6127 41.3489 37.57 41.0075C37.186 41.0929 36.8447 41.2209 36.546 41.3915C36.2473 41.5195 35.9913 41.7329 35.778 42.0315C35.7353 42.1169 35.6713 42.2022 35.586 42.2875C35.5433 42.3302 35.4793 42.3942 35.394 42.4795C35.6927 42.6502 35.9273 42.6075 36.098 42.3515C36.1833 42.3089 36.2687 42.2449 36.354 42.1595C36.482 42.0742 36.61 42.0102 36.738 41.9675C36.866 42.1809 36.8233 42.2875 36.61 42.2875C36.354 42.3302 36.2687 42.5222 36.354 42.8635ZM40.45 41.5835H40.834C40.7487 41.5409 40.706 41.4982 40.706 41.4555C40.6633 41.4982 40.578 41.5195 40.45 41.5195C40.45 41.5195 40.45 41.5409 40.45 41.5835ZM36.738 37.4235C36.9513 37.1249 37.0793 36.9755 37.122 36.9755C37.2073 36.9329 37.3567 36.9755 37.57 37.1035C37.442 37.1462 37.314 37.2102 37.186 37.2955C37.058 37.3382 36.9087 37.3809 36.738 37.4235Z" fill="#FF5D8F"/>
<path d="M35.648 67.568C35.4773 67.2693 35.328 66.9707 35.2 66.672C35.072 66.3733 34.9867 66.0747 34.944 65.776C34.9013 65.4347 34.7947 65.1787 34.624 65.008C34.496 64.88 34.3467 64.752 34.176 64.624C33.8773 64.5387 33.792 64.4107 33.92 64.24C33.5787 64.1547 33.28 64.048 33.024 63.92C32.768 63.792 32.5333 63.5147 32.32 63.088C32.192 62.704 32.0427 62.3627 31.872 62.064C31.744 61.7653 31.6373 61.4453 31.552 61.104L31.296 60.72C31.2533 60.7627 31.1893 60.8053 31.104 60.848C31.0613 60.8907 31.0187 60.9333 30.976 60.976C30.7627 61.1893 30.6133 61.36 30.528 61.488C30.4853 61.5307 30.4427 61.5947 30.4 61.68C30.4 61.7653 30.3787 61.8507 30.336 61.936C30.2933 61.936 30.2507 61.936 30.208 61.936C30.1653 61.8933 30.1013 61.872 30.016 61.872C29.9307 62.0427 29.8453 62.2133 29.76 62.384C29.6747 62.5547 29.5467 62.768 29.376 63.024C29.3333 63.0667 29.312 63.1307 29.312 63.216C29.0133 63.3013 28.8213 63.6 28.736 64.112C28.7787 64.1973 28.7787 64.3253 28.736 64.496C28.6933 64.6667 28.672 64.816 28.672 64.944C28.544 65.328 28.4373 65.5413 28.352 65.584C28.3093 65.6267 28.2027 65.4987 28.032 65.2C27.9893 65.1147 27.968 65.0293 27.968 64.944C27.968 64.8587 27.9253 64.752 27.84 64.624C27.9253 64.624 28.0107 64.6027 28.096 64.56C28.224 64.56 28.352 64.624 28.48 64.752C28.5227 64.7947 28.544 64.816 28.544 64.816L28.48 64.752C28.48 64.7093 28.4587 64.6667 28.416 64.624C28.416 64.624 28.416 64.6027 28.416 64.56V63.856C28.5867 63.856 28.672 63.664 28.672 63.28C28.7147 63.0667 28.736 62.832 28.736 62.576C28.7787 62.32 28.8853 62.1067 29.056 61.936C29.0987 61.9787 29.1413 62 29.184 62C29.2267 62.0427 29.2693 62.1067 29.312 62.192C29.6533 61.8933 29.6747 61.488 29.376 60.976L29.184 60.336C29.2693 60.4213 29.3547 60.464 29.44 60.464C29.3973 60.3787 29.376 60.2933 29.376 60.208C29.376 60.1227 29.3333 60.016 29.248 59.888C29.2053 59.7173 29.1627 59.5467 29.12 59.376C29.0773 59.1627 29.0773 58.9707 29.12 58.8V58.544C29.0347 58.3307 28.928 58.16 28.8 58.032C28.7147 57.904 28.672 57.7547 28.672 57.584C28.6293 57.584 28.5867 57.584 28.544 57.584C28.5013 57.584 28.4587 57.584 28.416 57.584V57.648C28.3733 57.4773 28.3307 57.328 28.288 57.2C28.288 57.0293 28.2453 56.8587 28.16 56.688L28.096 56.368C28.0533 56.1973 28.0107 56.048 27.968 55.92C27.968 55.792 27.9467 55.664 27.904 55.536C27.8187 55.3227 27.7547 55.1307 27.712 54.96C27.6693 54.7467 27.6053 54.4907 27.52 54.192C27.4773 53.8507 27.4133 53.552 27.328 53.296C27.2427 52.9973 27.1573 52.6773 27.072 52.336C27.0293 52.464 26.944 52.6347 26.816 52.848C26.7733 52.72 26.7093 52.592 26.624 52.464C26.5813 52.336 26.5173 52.1867 26.432 52.016C26.3893 52.1867 26.3467 52.3787 26.304 52.592C26.2613 52.7627 26.1333 52.848 25.92 52.848C25.9627 52.976 25.984 53.104 25.984 53.232C25.984 53.36 25.984 53.4667 25.984 53.552C25.728 53.296 25.6 53.1253 25.6 53.04C25.6 53.0827 25.5573 53.104 25.472 53.104C25.5573 53.232 25.6 53.3813 25.6 53.552C25.6 53.68 25.6213 53.808 25.664 53.936C25.7067 53.808 25.8133 53.68 25.984 53.552V54C25.8133 54.2987 25.6853 54.2987 25.6 54H25.408C25.3227 53.5733 25.2373 53.1253 25.152 52.656C25.1093 52.1867 25.0453 51.7173 24.96 51.248C24.9173 51.248 24.896 51.248 24.896 51.248L24.704 52.272C24.576 52.1867 24.4907 52.0373 24.448 51.824C24.448 51.6107 24.448 51.4187 24.448 51.248C24.3627 50.5653 24.192 49.8827 23.936 49.2L23.68 48.688C23.6373 48.56 23.616 48.432 23.616 48.304C23.616 48.1333 23.5947 47.984 23.552 47.856L23.872 48.048C23.8293 47.5787 23.744 47.28 23.616 47.152C23.5307 46.9813 23.296 46.9173 22.912 46.96C23.04 46.832 23.104 46.6827 23.104 46.512C23.1467 46.2987 23.2747 46.1067 23.488 45.936C23.488 45.936 23.488 45.8933 23.488 45.808C23.488 45.68 23.4667 45.616 23.424 45.616C23.2533 45.488 23.104 45.36 22.976 45.232C22.848 45.104 22.6773 45.0827 22.464 45.168C22.208 45.2107 21.8667 45.232 21.44 45.232C21.056 45.1893 20.352 45.2533 19.328 45.424C19.2853 45.4667 19.2 45.488 19.072 45.488C18.9867 45.4453 18.9013 45.424 18.816 45.424C17.4933 45.4667 16.4053 45.552 15.552 45.68C14.7413 45.7653 13.9947 45.8507 13.312 45.936C13.312 46.064 13.312 46.192 13.312 46.32C13.312 46.448 13.2053 46.5333 12.992 46.576C12.9493 46.576 12.9067 46.64 12.864 46.768C12.8213 46.896 12.8 46.96 12.8 46.96C12.8 47.3013 12.992 47.408 13.376 47.28C13.4187 47.28 13.4827 47.3227 13.568 47.408C13.6533 47.4507 13.7813 47.5147 13.952 47.6C14.08 47.6 14.1867 47.5573 14.272 47.472C14.4 47.344 14.5493 47.3653 14.72 47.536C14.8907 47.3653 14.9973 47.1947 15.04 47.024C15.3387 47.1093 15.5093 47.3227 15.552 47.664C15.04 47.7067 14.5067 47.792 13.952 47.92C13.44 48.0053 12.9067 48.0907 12.352 48.176V48.944C12.1813 48.9867 12.0533 49.1147 11.968 49.328C11.8827 49.5413 11.7547 49.776 11.584 50.032C11.5413 50.2027 11.4773 50.3733 11.392 50.544C11.3493 50.672 11.264 50.8213 11.136 50.992C11.136 51.0347 11.1147 51.056 11.072 51.056C11.072 51.056 11.072 51.0987 11.072 51.184C10.9013 51.7813 10.7093 52.3573 10.496 52.912C10.3253 53.424 10.1973 53.9787 10.112 54.576C9.94133 55.472 9.74933 56.3893 9.536 57.328C9.32267 58.2667 9.088 59.248 8.832 60.272C8.78933 60.3147 8.78933 60.4 8.832 60.528C8.832 60.9547 8.768 61.3387 8.64 61.68C8.512 62.0213 8.384 62.4053 8.256 62.832C8.256 62.8747 8.192 62.96 8.064 63.088C7.97867 63.216 7.85067 63.3653 7.68 63.536C7.552 63.7067 7.424 63.8987 7.296 64.112C7.168 64.112 7.06133 64.0907 6.976 64.048C6.89067 64.048 6.80533 64.048 6.72 64.048C6.50667 63.664 6.464 63.28 6.592 62.896L7.168 59.44C6.99733 59.6533 6.80533 59.824 6.592 59.952C6.42133 60.08 6.31467 60.3147 6.272 60.656C6.272 60.7413 6.25067 60.8267 6.208 60.912C6.208 60.9973 6.25067 61.104 6.336 61.232C6.37867 61.488 6.31467 61.6373 6.144 61.68C5.888 61.296 5.58933 61.168 5.248 61.296C4.82133 61.296 4.608 61.0827 4.608 60.656C4.56533 60.5707 4.544 60.5067 4.544 60.464C4.544 60.4213 4.50133 60.3573 4.416 60.272C4.24533 60.3573 4.13867 60.4853 4.096 60.656C4.05333 60.8267 3.98933 61.0187 3.904 61.232C3.73333 61.6587 3.584 62.1067 3.456 62.576C3.328 63.088 3.2 63.5787 3.072 64.048C3.072 64.048 3.05067 64.048 3.008 64.048C2.96533 64.048 2.92267 64.0907 2.88 64.176C2.752 63.7493 2.60267 63.3867 2.432 63.088C2.304 62.832 2.048 62.7467 1.664 62.832C1.74933 62.192 1.83467 61.7227 1.92 61.424C2.00533 61.2107 2.06933 60.9973 2.112 60.784C2.15467 60.528 2.19733 60.3147 2.24 60.144C2.41067 59.376 2.60267 58.5867 2.816 57.776C3.072 56.9227 3.30667 56.112 3.52 55.344C3.648 54.9173 3.79733 54.512 3.968 54.128C4.13867 53.7013 4.24533 53.296 4.288 52.912C4.416 52.3147 4.608 51.7813 4.864 51.312C4.94933 51.0987 4.90667 50.8853 4.736 50.672V50.416C4.77867 50.3733 4.82133 50.352 4.864 50.352C5.07733 50.3093 5.20533 50.2667 5.248 50.224C5.29067 50.1813 5.312 50.032 5.312 49.776C5.312 49.52 5.376 49.3493 5.504 49.264C5.54667 49.264 5.632 49.2 5.76 49.072C5.97333 48.688 6.144 48.3253 6.272 47.984C6.4 47.6427 6.54933 47.28 6.72 46.896C6.72 46.8107 6.69867 46.704 6.656 46.576C6.61333 46.448 6.50667 46.3627 6.336 46.32C6.25067 46.2347 6.144 46.1493 6.016 46.064C5.888 45.9787 5.71733 45.936 5.504 45.936C4.94933 46.1067 4.352 46.2347 3.712 46.32C3.072 46.3627 2.47467 46.384 1.92 46.384C1.74933 46.4267 1.55733 46.448 1.344 46.448C1.17333 46.448 0.981333 46.448 0.768 46.448C0.725333 46.4053 0.682667 46.384 0.64 46.384C0.597333 46.3413 0.554667 46.2773 0.512 46.192C0.725333 46.1067 0.981333 45.9573 1.28 45.744C1.57867 45.5307 1.856 45.4027 2.112 45.36C2.66667 45.2747 3.2 45.168 3.712 45.04C4.26667 44.912 4.8 44.784 5.312 44.656C5.73867 44.4427 6.12267 44.3147 6.464 44.272C6.848 44.1867 7.232 44.1013 7.616 44.016C7.744 43.9733 7.872 43.9307 8 43.888C8.128 43.8453 8.21333 43.7387 8.256 43.568C8.42667 43.056 8.66133 42.5867 8.96 42.16C9.30133 41.6907 9.57867 41.2213 9.792 40.752C9.87733 40.7093 9.92 40.6667 9.92 40.624C9.92 40.5387 9.92 40.496 9.92 40.496C9.96267 40.1547 10.048 39.8773 10.176 39.664C10.304 39.4507 10.432 39.2587 10.56 39.088C10.7307 38.6187 10.9653 38.128 11.264 37.616C11.9467 36.5493 12.608 35.4187 13.248 34.224C13.4613 33.9253 13.632 33.648 13.76 33.392C13.888 33.0933 14.0373 32.7947 14.208 32.496V32.112C14.1653 31.9413 14.1867 31.7707 14.272 31.6C14.3573 31.4293 14.4213 31.28 14.464 31.152C14.7627 30.5973 15.0827 30.0213 15.424 29.424C15.7653 28.8267 16.0853 28.2293 16.384 27.632C16.4693 27.4613 16.5973 27.2053 16.768 26.864C16.9813 26.5227 17.5147 25.648 18.368 24.24C18.4533 24.1547 18.4747 23.984 18.432 23.728C18.2187 23.3867 18.0053 23.024 17.792 22.64C17.5787 22.2133 17.344 21.7653 17.088 21.296C17.0453 21.2107 16.896 21.1253 16.64 21.04C16.4267 20.784 16.1707 20.7627 15.872 20.976C15.7867 21.0187 15.7013 21.0613 15.616 21.104C15.5307 21.104 15.4453 21.1467 15.36 21.232C15.4453 20.976 15.5307 20.7413 15.616 20.528C15.744 20.272 15.7653 19.9947 15.68 19.696C15.8507 19.6533 16.0427 19.632 16.256 19.632C16.7253 19.504 16.7893 19.2053 16.448 18.736C16.7893 18.736 17.0453 18.6293 17.216 18.416C17.3867 18.2027 17.5573 17.9893 17.728 17.776H18.304C18.304 17.6907 18.304 17.6053 18.304 17.52C18.304 17.392 18.304 17.2853 18.304 17.2L18.752 17.136C19.3493 17.008 19.776 16.752 20.032 16.368C20.0747 16.24 20.1173 16.1547 20.16 16.112C20.2027 16.0693 20.2453 16.0267 20.288 15.984C20.3733 16.0267 20.48 16.0907 20.608 16.176C20.7787 16.2613 20.9707 16.24 21.184 16.112C21.2693 16.0693 21.3547 16.0907 21.44 16.176C21.5253 16.2613 21.6107 16.3467 21.696 16.432C21.824 16.56 22.016 16.6027 22.272 16.56C22.2293 16.4747 22.208 16.368 22.208 16.24C22.2507 16.112 22.272 16.0267 22.272 15.984C22.1867 15.8987 22.08 15.856 21.952 15.856C21.824 15.856 21.7173 15.8347 21.632 15.792C21.5893 15.664 21.568 15.472 21.568 15.216C21.7813 15.1307 21.952 15.0667 22.08 15.024C22.208 14.9813 22.3147 14.9173 22.4 14.832C22.4853 14.7893 22.5707 14.7893 22.656 14.832C22.7413 14.832 22.8053 14.832 22.848 14.832C23.232 15.0027 23.4667 15.1093 23.552 15.152C23.68 15.152 23.872 15.0667 24.128 14.896C24.3413 14.9813 24.448 15.1093 24.448 15.28L24.704 14.64C24.8747 14.4693 25.0027 14.32 25.088 14.192C25.088 14.2773 25.088 14.3413 25.088 14.384C25.1307 14.4267 25.1733 14.4907 25.216 14.576C25.216 14.576 25.2587 14.6613 25.344 14.832C25.4293 15.3013 25.5787 15.6853 25.792 15.984C26.0053 16.2827 26.2613 16.5387 26.56 16.752C26.9867 17.0507 27.264 17.4133 27.392 17.84C27.4347 18.0107 27.4773 18.2027 27.52 18.416C27.5627 18.5867 27.584 18.736 27.584 18.864C27.6693 19.5893 27.776 20.4853 27.904 21.552C28.0747 22.6187 28.5653 23.5573 29.376 24.368C29.376 24.5387 29.3973 24.6453 29.44 24.688C29.568 24.9013 29.632 25.1147 29.632 25.328C29.632 25.4987 29.6533 25.6693 29.696 25.84C29.7387 26.4373 29.76 27.0133 29.76 27.568C29.8027 28.08 29.8667 28.6347 29.952 29.232V30.064C30.0373 30.6187 30.08 31.1947 30.08 31.792C30.1227 32.3893 30.1653 32.9653 30.208 33.52C30.2933 33.776 30.3147 34.0533 30.272 34.352C30.272 34.608 30.272 34.8853 30.272 35.184H29.952C29.9947 35.44 30.016 35.7173 30.016 36.016C30.0587 36.272 30.08 36.5493 30.08 36.848C30.08 37.104 30.1013 37.36 30.144 37.616C30.1867 37.872 30.2293 38.1067 30.272 38.32C30.3147 38.4907 30.336 38.704 30.336 38.96C30.3787 39.1733 30.4427 39.3867 30.528 39.6C30.528 39.8133 30.5493 40.0693 30.592 40.368C30.6347 40.624 30.6773 40.9013 30.72 41.2C30.7627 41.4987 30.8267 41.8187 30.912 42.16C30.9973 42.4587 31.0613 42.7573 31.104 43.056V44.016C31.1893 44.144 31.2533 44.3147 31.296 44.528C31.3813 44.6987 31.4453 44.848 31.488 44.976C31.5733 45.2747 31.6373 45.616 31.68 46C31.7227 46.3413 31.7653 46.6827 31.808 47.024C31.8933 47.4933 31.9787 47.9413 32.064 48.368C32.192 48.752 32.2773 49.1787 32.32 49.648C32.4053 49.9467 32.4693 50.2453 32.512 50.544C32.5547 50.8 32.6613 51.0987 32.832 51.44L33.024 52.08C32.9387 52.1653 32.9387 52.4213 33.024 52.848C33.1093 52.976 33.152 53.104 33.152 53.232C33.1947 53.36 33.344 53.3813 33.6 53.296C33.8133 53.936 34.0267 54.576 34.24 55.216C34.496 55.856 34.752 56.4747 35.008 57.072C35.1787 57.4987 35.328 57.9253 35.456 58.352C35.6267 58.7787 35.7973 59.184 35.968 59.568C36.0107 59.6107 36.0533 59.696 36.096 59.824C36.1813 59.9093 36.2453 59.9947 36.288 60.08C36.5013 60.336 36.5653 60.72 36.48 61.232C36.4373 61.232 36.3733 61.168 36.288 61.04C36.2453 60.8693 36.1813 60.848 36.096 60.976C36.0533 61.0187 36.032 61.104 36.032 61.232C36.0747 61.36 36.096 61.4667 36.096 61.552C36.0533 61.68 36.032 61.8293 36.032 62C36.0747 62.1707 36.0533 62.384 35.968 62.64C35.968 62.64 35.904 62.6613 35.776 62.704C35.648 62.7467 35.5627 62.832 35.52 62.96C35.4773 63.0027 35.4987 63.1733 35.584 63.472C35.6693 63.984 35.8613 64.432 36.16 64.816C36.3733 65.2427 36.5867 65.6907 36.8 66.16C37.0133 66.6293 37.248 67.0987 37.504 67.568C37.4613 67.568 37.4187 67.568 37.376 67.568C37.3333 67.568 37.2907 67.568 37.248 67.568H35.648ZM1.408 62.064C1.408 62.0213 1.38667 61.9787 1.344 61.936C1.344 61.8933 1.344 61.872 1.344 61.872H1.472C1.472 61.872 1.472 61.8933 1.472 61.936C1.472 61.9787 1.472 62.0213 1.472 62.064H1.408ZM5.184 60.272C5.35467 59.9733 5.376 59.6747 5.248 59.376C5.20533 59.504 5.16267 59.6533 5.12 59.824C5.12 59.952 5.07733 60.0587 4.992 60.144C5.07733 60.144 5.14133 60.1867 5.184 60.272ZM3.072 57.968H3.136C3.136 57.968 3.15733 57.968 3.2 57.968C3.24267 57.968 3.264 57.9467 3.264 57.904C3.60533 57.1787 3.88267 56.496 4.096 55.856C4.352 55.1733 4.62933 54.4907 4.928 53.808C5.09867 53.2533 5.312 52.6987 5.568 52.144C5.824 51.5893 6.05867 51.056 6.272 50.544C6.31467 50.4587 6.336 50.3733 6.336 50.288C6.336 50.2027 6.272 50.0747 6.144 49.904C6.05867 50.1173 5.952 50.2453 5.824 50.288C5.65333 50.7147 5.46133 51.1627 5.248 51.632C5.03467 52.0587 4.84267 52.5067 4.672 52.976C4.416 53.744 4.13867 54.5333 3.84 55.344C3.584 56.112 3.34933 56.88 3.136 57.648C3.09333 57.6907 3.072 57.7973 3.072 57.968ZM6.592 48.752H6.784C7.04 48.624 7.12533 48.4107 7.04 48.112L6.784 48.048C6.528 48.2187 6.464 48.4533 6.592 48.752ZM7.104 47.728C7.104 47.7707 7.12533 47.7707 7.168 47.728C7.25333 47.6853 7.296 47.664 7.296 47.664C7.38133 47.536 7.44533 47.3867 7.488 47.216C7.57333 47.0027 7.57333 46.768 7.488 46.512C7.31733 46.6827 7.21067 46.8747 7.168 47.088C7.12533 47.2587 7.08267 47.4507 7.04 47.664C6.99733 47.664 6.976 47.6853 6.976 47.728C7.01867 47.728 7.06133 47.728 7.104 47.728ZM27.776 64.624H27.84C27.7973 64.624 27.776 64.6027 27.776 64.56C27.6907 64.4747 27.6053 64.3253 27.52 64.112C27.4773 63.9413 27.392 63.792 27.264 63.664C27.264 63.6213 27.3067 63.6 27.392 63.6C27.4773 63.728 27.5413 63.8773 27.584 64.048C27.6693 64.2187 27.7333 64.3893 27.776 64.56C27.776 64.6027 27.776 64.624 27.776 64.624ZM28.16 62.896C27.9893 62.64 27.8613 62.384 27.776 62.128C27.6907 61.872 27.648 61.5307 27.648 61.104C27.7333 61.4453 27.8187 61.744 27.904 62C27.9893 62.2987 28.0747 62.5973 28.16 62.896ZM26.752 60.912C26.5813 60.8693 26.496 60.784 26.496 60.656C26.5387 60.4853 26.5173 60.3573 26.432 60.272C26.6027 60.3147 26.688 60.4 26.688 60.528C26.688 60.6133 26.7093 60.7413 26.752 60.912ZM26.048 59.952C26.0053 59.7813 25.9413 59.6533 25.856 59.568C25.8133 59.44 25.7707 59.312 25.728 59.184C25.8987 59.3547 26.0053 59.6107 26.048 59.952ZM25.664 57.392C25.6213 57.3067 25.6 57.2 25.6 57.072L25.664 57.008C25.664 57.0933 25.6853 57.2213 25.728 57.392H25.664ZM29.184 60.336C29.0987 60.2507 29.056 60.1653 29.056 60.08C29.0987 60.1227 29.12 60.1653 29.12 60.208C29.12 60.2507 29.1413 60.2933 29.184 60.336ZM26.432 57.52L26.368 57.072C26.368 57.0293 26.368 56.9653 26.368 56.88C26.368 56.752 26.3467 56.6453 26.304 56.56C26.432 56.8587 26.4747 57.1787 26.432 57.52ZM25.024 55.984C24.9813 55.8987 24.96 55.7067 24.96 55.408C25.0453 55.7067 25.1307 55.8773 25.216 55.92L25.024 55.984ZM26.112 56.496C26.0693 56.4107 26.0267 56.3467 25.984 56.304C25.984 56.2187 25.9627 56.1333 25.92 56.048C25.9627 56.0053 25.984 55.9627 25.984 55.92C25.984 56.0053 26.0053 56.112 26.048 56.24C26.0907 56.3253 26.1333 56.4107 26.176 56.496H26.112ZM28.992 59.888C28.9493 59.8027 28.8853 59.7173 28.8 59.632C28.7573 59.5467 28.7147 59.4827 28.672 59.44L28.48 58.288C28.48 58.2027 28.48 58.096 28.48 57.968C28.48 57.84 28.4587 57.7333 28.416 57.648C28.416 57.776 28.416 57.904 28.416 58.032C28.4587 58.1173 28.48 58.2027 28.48 58.288C28.5653 58.5867 28.6507 58.864 28.736 59.12C28.8213 59.3333 28.9067 59.5893 28.992 59.888ZM25.408 55.536C25.3227 55.3653 25.2373 55.1947 25.152 55.024C25.1093 54.8533 25.1093 54.6827 25.152 54.512C25.1947 54.64 25.2373 54.7893 25.28 54.96C25.3653 55.088 25.408 55.28 25.408 55.536ZM26.688 55.856C26.4747 55.5573 26.3467 55.3653 26.304 55.28C26.304 55.152 26.368 55.0027 26.496 54.832C26.7093 55.088 26.7733 55.4293 26.688 55.856ZM30.208 59.44C30.2933 59.0987 30.2933 58.864 30.208 58.736C30.0373 58.608 29.9307 58.5013 29.888 58.416C29.888 58.3307 29.8667 58.1173 29.824 57.776C29.7387 57.6907 29.696 57.6053 29.696 57.52C29.6533 57.8187 29.6747 58.16 29.76 58.544C29.8453 58.928 29.9947 59.2267 30.208 59.44ZM25.6 54L25.664 53.936C25.664 53.936 25.6427 53.936 25.6 53.936C25.6 53.936 25.6 53.9573 25.6 54ZM24.704 53.488V52.72C24.8747 53.0187 24.8747 53.2747 24.704 53.488ZM30.528 58.544C30.6133 58.288 30.6347 58.1387 30.592 58.096C30.592 58.0107 30.5067 57.904 30.336 57.776C30.3787 57.904 30.4 58.0107 30.4 58.096C30.4427 58.1813 30.4853 58.3307 30.528 58.544ZM28.608 56.368C28.6933 55.7707 28.608 55.4933 28.352 55.536L28.224 55.728C28.3093 55.7707 28.352 55.856 28.352 55.984C28.3947 56.0693 28.48 56.1973 28.608 56.368ZM27.008 54.32C27.008 54.2347 27.008 54.1493 27.008 54.064C27.008 53.936 27.008 53.8507 27.008 53.808C27.008 53.8507 27.008 53.936 27.008 54.064C27.008 54.1493 27.0293 54.2347 27.072 54.32H27.008ZM30.208 56.752C30.2933 56.624 30.272 56.5173 30.144 56.432C30.016 56.304 29.9733 56.176 30.016 56.048V55.152C29.7173 55.8773 29.7813 56.4107 30.208 56.752ZM22.144 47.216C22.144 47.216 22.1227 47.1947 22.08 47.152C22.0373 47.0667 22.016 47.024 22.016 47.024V46.96C22.0587 47.0027 22.1013 47.024 22.144 47.024V47.216ZM29.76 54.64C29.76 54.64 29.76 54.6187 29.76 54.576C29.76 54.5333 29.7813 54.512 29.824 54.512C29.7387 54.3413 29.696 54.2347 29.696 54.192C29.696 54.4053 29.7173 54.5547 29.76 54.64ZM29.376 52.016H29.44C29.3973 51.888 29.376 51.7813 29.376 51.696C29.376 51.568 29.3547 51.4187 29.312 51.248H29.248C29.2907 51.4187 29.312 51.568 29.312 51.696C29.312 51.7813 29.3333 51.888 29.376 52.016ZM34.944 58.16L35.008 57.968C34.9653 57.9253 34.944 57.84 34.944 57.712L34.816 57.84C34.816 57.8827 34.8373 57.9253 34.88 57.968C34.9227 58.0107 34.944 58.0747 34.944 58.16ZM34.496 56.688H34.624C34.624 56.6027 34.5813 56.5173 34.496 56.432H34.432C34.4747 56.5173 34.496 56.6027 34.496 56.688ZM33.664 54.832C33.792 54.832 33.856 54.768 33.856 54.64C33.856 54.5547 33.792 54.448 33.664 54.32V54.832ZM14.08 42.352C14.2507 42.5227 14.4 42.5227 14.528 42.352C14.656 42.1813 14.8053 42.0107 14.976 41.84C14.8907 42.224 14.9333 42.416 15.104 42.416C15.2747 42.3733 15.4027 42.352 15.488 42.352C16.384 42.2667 17.1947 42.2027 17.92 42.16C18.688 42.1173 19.4773 42.032 20.288 41.904H22.336C22.2933 41.7333 22.272 41.584 22.272 41.456C22.3147 41.2853 22.336 41.1147 22.336 40.944C22.336 40.816 22.336 40.688 22.336 40.56C22.336 40.3893 22.336 40.2827 22.336 40.24L22.08 38.576C22.08 38.4907 22.0587 38.4053 22.016 38.32C21.9733 38.192 22.0587 38.1067 22.272 38.064C22.4427 38.0213 22.528 37.8933 22.528 37.68C22.528 37.424 22.4427 37.2747 22.272 37.232C21.9733 37.1467 21.8027 37.0187 21.76 36.848C21.76 36.6347 21.76 36.4213 21.76 36.208C21.504 34.8 21.376 33.4133 21.376 32.048C21.376 30.64 21.376 29.2747 21.376 27.952C21.3333 27.6533 21.312 27.2267 21.312 26.672C21.0133 26.8427 20.8 27.0347 20.672 27.248C20.5867 27.4187 20.5013 27.6107 20.416 27.824C20.2453 28.2933 20.0533 28.7413 19.84 29.168C19.6693 29.5947 19.4773 30 19.264 30.384C18.9653 31.1947 18.6667 31.984 18.368 32.752C18.112 33.4773 17.8133 34.2027 17.472 34.928C17.088 35.7387 16.7253 36.5493 16.384 37.36C16.0853 38.1707 15.6373 38.832 15.04 39.344C14.9973 39.344 14.976 39.3867 14.976 39.472C14.976 39.984 14.8693 40.4107 14.656 40.752C14.4427 41.0507 14.2933 41.4347 14.208 41.904C14.1653 41.9893 14.1227 42.0747 14.08 42.16C14.08 42.2453 14.08 42.3093 14.08 42.352ZM30.784 43.248C30.784 43.1627 30.784 43.0987 30.784 43.056C30.8267 42.9707 30.848 42.8853 30.848 42.8C30.7627 42.4587 30.656 42.1173 30.528 41.776C30.4427 41.4347 30.3787 41.072 30.336 40.688C30.336 40.4747 30.272 40.2827 30.144 40.112C30.0587 39.8987 30.0373 39.7067 30.08 39.536C30.1227 39.3227 30.1013 39.152 30.016 39.024C29.9733 38.8533 29.9093 38.6827 29.824 38.512C29.7813 38.4267 29.76 38.3413 29.76 38.256C29.76 38.128 29.7173 38.0213 29.632 37.936L29.312 35.696C29.312 35.44 29.248 35.1627 29.12 34.864C29.0773 34.5227 28.992 34.2453 28.864 34.032C28.736 33.776 28.5867 33.4987 28.416 33.2C28.288 33.456 28.2453 33.6907 28.288 33.904C28.3733 34.0747 28.416 34.2667 28.416 34.48C28.416 34.6507 28.4587 34.8 28.544 34.928C28.6293 35.056 28.672 35.184 28.672 35.312C28.672 35.6533 28.672 35.9947 28.672 36.336C28.672 36.6773 28.7573 37.04 28.928 37.424V37.552C29.0133 37.8507 29.056 38.128 29.056 38.384C29.0987 38.64 29.184 38.9387 29.312 39.28C29.3547 39.4933 29.3973 39.7493 29.44 40.048C29.5253 40.3467 29.6747 40.6453 29.888 40.944C29.9733 41.1147 30.0373 41.3067 30.08 41.52C30.1653 41.7333 30.2507 41.9253 30.336 42.096C30.4213 42.2667 30.464 42.4587 30.464 42.672C30.5067 42.8427 30.6133 43.0347 30.784 43.248ZM28.288 32.304H28.416C28.3733 32.0907 28.3307 31.92 28.288 31.792C28.288 31.6213 28.288 31.472 28.288 31.344H28.224C28.224 31.472 28.224 31.6213 28.224 31.792C28.224 31.92 28.2453 32.0907 28.288 32.304Z" fill="#FF5D8F"/>
</svg>
