<svg width="83" height="103" viewBox="0 0 83 103" fill="none" xmlns="http://www.w3.org/2000/svg">
<path d="M32 32H52" stroke="#1E1E1E" stroke-width="4" stroke-linecap="round"/>
<path d="M13 32.5C10.5 32 5.59999 32.6 5.99999 39L2.49999 89C2.16666 92.8333 3.29999 100.5 10.5 100.5H71.5C74.8333 100.833 81.3 99 80.5 89L77.5 39C77.5 36.5 76.1 31.7 70.5 32.5" stroke="#1E1E1E" stroke-width="4" stroke-linecap="round"/>
<path d="M17.5 26V42C19.9 46 22.5 43.6667 23.5 42V26C25.9 12 35.8333 9.5 40.5 10C54.1 8.4 58.5 20 59 26V42C62.2 46 65 43.6667 66 42V26C64.4 6.4 48.3333 2.5 40.5 3C21.7 4.6 17.3333 19 17.5 26Z" stroke="#1E1E1E" stroke-width="4" stroke-linecap="round"/>
</svg>
