<svg width="85" height="93" viewBox="0 0 85 93" fill="none" xmlns="http://www.w3.org/2000/svg">
<path d="M70.5 80L76 24H7.5C9.16667 38.8333 12.6 70.8 13 80C13.4 89.2 19.8333 90.8333 23 90.5C31.6667 90.3333 51.2 90.1 60 90.5C68.8 90.9 70.6667 83.6667 70.5 80Z" stroke="#1E1E1E" stroke-width="4" stroke-linecap="round"/>
<path d="M45.5 37.5C42.3 32.3 38.8333 35.3333 37.5 37.5V75C41.1 81.8 44.3333 77.8333 45.5 75V37.5Z" stroke="#1E1E1E" stroke-width="4" stroke-linecap="round"/>
<path d="M55.5 37.5L53.5 75C55.9 80.2 59.5 77.1667 61 75L63.5 37.5C60.3 32.3 56.8333 35.3333 55.5 37.5Z" stroke="#1E1E1E" stroke-width="4" stroke-linecap="round"/>
<path d="M2 20.5C2 22.1 4.66666 23.1667 6 23.5H75C79.8 23.5 81.6667 21.5 82 20.5C82.8 18.1 79.3333 17.1667 77.5 17H7.5C1.5 17 2 18.5 2 20.5Z" stroke="#1E1E1E" stroke-width="4" stroke-linecap="round"/>
<path d="M35.5 9.00001C35.3333 6.83334 36.3 2.60001 41.5 3.00001C43.3333 3.00001 47 4.20001 47 9.00001M8.49999 16.5C7.66666 14.8333 6.89999 11.4 10.5 11H72.5C73.8333 11.5 76.2 13.3 75 16.5H8.49999Z" stroke="#1E1E1E" stroke-width="4" stroke-linecap="round"/>
</svg>
